<mxfile host="app.diagrams.net" modified="2022-09-17T00:30:08.307Z" agent="5.0 (Macintosh; Intel Mac OS X 10_15_7) AppleWebKit/537.36 (KHTML, like Gecko) Chrome/105.0.0.0 Safari/537.36" etag="kAylUfklGSOr4JXsFy-q" version="20.3.1" type="github" pages="3">
  <diagram id="fB-dUBdgHs6sgRfgI-ms" name="Initial Frontend">
    <mxGraphModel dx="946" dy="618" grid="1" gridSize="10" guides="1" tooltips="1" connect="1" arrows="1" fold="1" page="1" pageScale="1" pageWidth="850" pageHeight="1100" math="0" shadow="0">
      <root>
        <mxCell id="0" />
        <mxCell id="1" parent="0" />
        <mxCell id="lni1k4Z6WFQp1zqdxXNP-9" value="" style="edgeStyle=orthogonalEdgeStyle;rounded=0;orthogonalLoop=1;jettySize=auto;html=1;" parent="1" source="lni1k4Z6WFQp1zqdxXNP-2" target="lni1k4Z6WFQp1zqdxXNP-8" edge="1">
          <mxGeometry relative="1" as="geometry" />
        </mxCell>
        <mxCell id="lni1k4Z6WFQp1zqdxXNP-2" value="Browser&lt;br&gt;Open" style="strokeWidth=2;html=1;shape=mxgraph.flowchart.start_2;whiteSpace=wrap;" parent="1" vertex="1">
          <mxGeometry x="40" y="50" width="100" height="100" as="geometry" />
        </mxCell>
        <mxCell id="lni1k4Z6WFQp1zqdxXNP-11" value="yes" style="edgeStyle=orthogonalEdgeStyle;rounded=0;orthogonalLoop=1;jettySize=auto;html=1;entryX=0;entryY=0.5;entryDx=0;entryDy=0;entryPerimeter=0;" parent="1" source="lni1k4Z6WFQp1zqdxXNP-8" target="lni1k4Z6WFQp1zqdxXNP-18" edge="1">
          <mxGeometry relative="1" as="geometry">
            <mxPoint x="310" y="100" as="targetPoint" />
          </mxGeometry>
        </mxCell>
        <mxCell id="lni1k4Z6WFQp1zqdxXNP-13" value="no" style="edgeStyle=orthogonalEdgeStyle;rounded=0;orthogonalLoop=1;jettySize=auto;html=1;" parent="1" source="lni1k4Z6WFQp1zqdxXNP-8" target="lni1k4Z6WFQp1zqdxXNP-12" edge="1">
          <mxGeometry relative="1" as="geometry" />
        </mxCell>
        <mxCell id="lni1k4Z6WFQp1zqdxXNP-8" value="check local&lt;br&gt;logged in?" style="rhombus;whiteSpace=wrap;html=1;" parent="1" vertex="1">
          <mxGeometry x="170" y="60" width="80" height="80" as="geometry" />
        </mxCell>
        <mxCell id="lni1k4Z6WFQp1zqdxXNP-24" value="" style="edgeStyle=orthogonalEdgeStyle;rounded=0;orthogonalLoop=1;jettySize=auto;html=1;" parent="1" source="lni1k4Z6WFQp1zqdxXNP-12" target="lni1k4Z6WFQp1zqdxXNP-23" edge="1">
          <mxGeometry relative="1" as="geometry" />
        </mxCell>
        <mxCell id="lni1k4Z6WFQp1zqdxXNP-12" value="show landing page" style="rounded=1;whiteSpace=wrap;html=1;" parent="1" vertex="1">
          <mxGeometry x="150" y="180" width="120" height="60" as="geometry" />
        </mxCell>
        <mxCell id="lni1k4Z6WFQp1zqdxXNP-19" value="client" style="edgeStyle=orthogonalEdgeStyle;rounded=0;orthogonalLoop=1;jettySize=auto;html=1;exitX=1;exitY=0;exitDx=0;exitDy=0;exitPerimeter=0;entryX=0;entryY=0.5;entryDx=0;entryDy=0;" parent="1" source="lni1k4Z6WFQp1zqdxXNP-18" target="lni1k4Z6WFQp1zqdxXNP-21" edge="1">
          <mxGeometry relative="1" as="geometry">
            <mxPoint x="440" y="50" as="targetPoint" />
            <Array as="points">
              <mxPoint x="400" y="50" />
              <mxPoint x="400" y="50" />
            </Array>
          </mxGeometry>
        </mxCell>
        <mxCell id="lni1k4Z6WFQp1zqdxXNP-20" value="buddy" style="edgeStyle=orthogonalEdgeStyle;rounded=0;orthogonalLoop=1;jettySize=auto;html=1;exitX=1;exitY=1;exitDx=0;exitDy=0;exitPerimeter=0;entryX=0;entryY=0.5;entryDx=0;entryDy=0;" parent="1" source="lni1k4Z6WFQp1zqdxXNP-18" target="lni1k4Z6WFQp1zqdxXNP-41" edge="1">
          <mxGeometry relative="1" as="geometry">
            <mxPoint x="450" y="150" as="targetPoint" />
            <Array as="points">
              <mxPoint x="400" y="150" />
              <mxPoint x="400" y="150" />
            </Array>
          </mxGeometry>
        </mxCell>
        <mxCell id="lni1k4Z6WFQp1zqdxXNP-18" value="" style="strokeWidth=2;html=1;shape=mxgraph.flowchart.annotation_1;align=left;pointerEvents=1;" parent="1" vertex="1">
          <mxGeometry x="330" y="50" width="50" height="100" as="geometry" />
        </mxCell>
        <mxCell id="lni1k4Z6WFQp1zqdxXNP-21" value="redirect to client homepage" style="rounded=1;whiteSpace=wrap;html=1;" parent="1" vertex="1">
          <mxGeometry x="450" y="20" width="120" height="60" as="geometry" />
        </mxCell>
        <mxCell id="lni1k4Z6WFQp1zqdxXNP-26" value="" style="edgeStyle=orthogonalEdgeStyle;rounded=0;orthogonalLoop=1;jettySize=auto;html=1;" parent="1" source="lni1k4Z6WFQp1zqdxXNP-23" target="lni1k4Z6WFQp1zqdxXNP-25" edge="1">
          <mxGeometry relative="1" as="geometry" />
        </mxCell>
        <mxCell id="lni1k4Z6WFQp1zqdxXNP-23" value="click sign up" style="whiteSpace=wrap;html=1;rounded=1;" parent="1" vertex="1">
          <mxGeometry x="150" y="270" width="120" height="60" as="geometry" />
        </mxCell>
        <mxCell id="lni1k4Z6WFQp1zqdxXNP-28" value="buddy" style="edgeStyle=orthogonalEdgeStyle;rounded=0;orthogonalLoop=1;jettySize=auto;html=1;entryX=0;entryY=0.5;entryDx=0;entryDy=0;" parent="1" source="lni1k4Z6WFQp1zqdxXNP-25" target="lni1k4Z6WFQp1zqdxXNP-37" edge="1">
          <mxGeometry relative="1" as="geometry">
            <mxPoint x="310" y="400" as="targetPoint" />
          </mxGeometry>
        </mxCell>
        <mxCell id="lni1k4Z6WFQp1zqdxXNP-30" value="client" style="edgeStyle=orthogonalEdgeStyle;rounded=0;orthogonalLoop=1;jettySize=auto;html=1;entryX=0.5;entryY=0;entryDx=0;entryDy=0;" parent="1" source="lni1k4Z6WFQp1zqdxXNP-25" target="lni1k4Z6WFQp1zqdxXNP-36" edge="1">
          <mxGeometry relative="1" as="geometry">
            <mxPoint x="210" y="480" as="targetPoint" />
          </mxGeometry>
        </mxCell>
        <mxCell id="lni1k4Z6WFQp1zqdxXNP-25" value="account&lt;br&gt;type?" style="rhombus;whiteSpace=wrap;html=1;rounded=1;" parent="1" vertex="1">
          <mxGeometry x="170" y="360" width="80" height="80" as="geometry" />
        </mxCell>
        <mxCell id="lni1k4Z6WFQp1zqdxXNP-34" value="" style="edgeStyle=orthogonalEdgeStyle;rounded=0;orthogonalLoop=1;jettySize=auto;html=1;exitX=1;exitY=0.5;exitDx=0;exitDy=0;entryX=0;entryY=0.5;entryDx=0;entryDy=0;" parent="1" source="lni1k4Z6WFQp1zqdxXNP-36" target="lni1k4Z6WFQp1zqdxXNP-39" edge="1">
          <mxGeometry relative="1" as="geometry">
            <mxPoint x="270" y="520" as="sourcePoint" />
            <mxPoint x="350" y="520" as="targetPoint" />
          </mxGeometry>
        </mxCell>
        <mxCell id="lni1k4Z6WFQp1zqdxXNP-36" value="just regular auth flow" style="whiteSpace=wrap;html=1;rounded=1;" parent="1" vertex="1">
          <mxGeometry x="150" y="490" width="120" height="60" as="geometry" />
        </mxCell>
        <mxCell id="lni1k4Z6WFQp1zqdxXNP-42" style="edgeStyle=orthogonalEdgeStyle;rounded=0;orthogonalLoop=1;jettySize=auto;html=1;exitX=0.5;exitY=0;exitDx=0;exitDy=0;entryX=0.5;entryY=1;entryDx=0;entryDy=0;" parent="1" source="lni1k4Z6WFQp1zqdxXNP-37" target="lni1k4Z6WFQp1zqdxXNP-41" edge="1">
          <mxGeometry relative="1" as="geometry" />
        </mxCell>
        <mxCell id="lni1k4Z6WFQp1zqdxXNP-37" value="auth flow" style="whiteSpace=wrap;html=1;rounded=1;" parent="1" vertex="1">
          <mxGeometry x="450" y="370" width="120" height="60" as="geometry" />
        </mxCell>
        <mxCell id="lni1k4Z6WFQp1zqdxXNP-39" value="redirect to client homepage" style="whiteSpace=wrap;html=1;rounded=1;" parent="1" vertex="1">
          <mxGeometry x="320" y="490" width="120" height="60" as="geometry" />
        </mxCell>
        <mxCell id="lni1k4Z6WFQp1zqdxXNP-45" value="" style="edgeStyle=orthogonalEdgeStyle;rounded=0;orthogonalLoop=1;jettySize=auto;html=1;" parent="1" source="lni1k4Z6WFQp1zqdxXNP-41" target="lni1k4Z6WFQp1zqdxXNP-44" edge="1">
          <mxGeometry relative="1" as="geometry" />
        </mxCell>
        <mxCell id="lni1k4Z6WFQp1zqdxXNP-41" value="redirect to buddy dashboard" style="whiteSpace=wrap;html=1;rounded=1;" parent="1" vertex="1">
          <mxGeometry x="450" y="120" width="120" height="60" as="geometry" />
        </mxCell>
        <mxCell id="lni1k4Z6WFQp1zqdxXNP-44" value="show relevant stripe info / creation flow" style="whiteSpace=wrap;html=1;rounded=1;" parent="1" vertex="1">
          <mxGeometry x="650" y="120" width="120" height="60" as="geometry" />
        </mxCell>
      </root>
    </mxGraphModel>
  </diagram>
  <diagram id="P84VeIdCN4c88wvEYBFv" name="Auth API">
    <mxGraphModel dx="946" dy="1718" grid="1" gridSize="10" guides="1" tooltips="1" connect="1" arrows="1" fold="1" page="1" pageScale="1" pageWidth="850" pageHeight="1100" math="0" shadow="0">
      <root>
        <mxCell id="0" />
        <mxCell id="1" parent="0" />
        <mxCell id="ZTwmdkfxJVdS7OqQdA1G-3" value="" style="edgeStyle=orthogonalEdgeStyle;rounded=0;orthogonalLoop=1;jettySize=auto;html=1;entryX=0;entryY=0.518;entryDx=0;entryDy=0;entryPerimeter=0;" edge="1" parent="1" source="ZTwmdkfxJVdS7OqQdA1G-1" target="ZTwmdkfxJVdS7OqQdA1G-4">
          <mxGeometry relative="1" as="geometry">
            <mxPoint x="200" y="70" as="targetPoint" />
          </mxGeometry>
        </mxCell>
        <mxCell id="ZTwmdkfxJVdS7OqQdA1G-1" value="api/auth/signup" style="strokeWidth=2;html=1;shape=mxgraph.flowchart.start_2;whiteSpace=wrap;" vertex="1" parent="1">
          <mxGeometry x="30" y="310" width="100" height="100" as="geometry" />
        </mxCell>
        <mxCell id="ZTwmdkfxJVdS7OqQdA1G-4" value="" style="shape=image;verticalLabelPosition=bottom;labelBackgroundColor=default;verticalAlign=top;aspect=fixed;imageAspect=0;image=data:image/png,iVBORw0KGgoAAAANSUhEUgAAAMwAAALKCAYAAAB+5L7GAAAMQWlDQ1BJQ0MgUHJvZmlsZQAASImVVwdYU8kWnluSkEBoAQSkhN4EASkBpITQAkjvohKSAKHEGAgqdmRRwbWgYgEbuiqi2GkWFLGzKPa+WFBR1sWCXXmTArruK9+b75s7//3nzH/OnDtz7x0A1I5zRKJcVB2APGGBOCbYn56UnEInPQFkoAyIgACcONx8ETMqKhzAMtT+vby7DhBpe8VeqvXP/v9aNHj8fC4ASBTE6bx8bh7EBwHAq7kicQEARClvNrVAJMWwAi0xDBDihVKcKcfVUpwux3tlNnExLIjbAVBS4XDEmQCoXoI8vZCbCTVU+yF2FPIEQgDU6BD75OVN5kGcBrE1tBFBLNVnpP+gk/k3zfRhTQ4ncxjL5yIrSgGCfFEuZ/r/mY7/XfJyJUM+LGFVyRKHxEjnDPN2M2dymBSrQNwnTI+IhFgT4g8CnsweYpSSJQmJl9ujBtx8FswZ0IHYkccJCIPYAOIgYW5EuIJPzxAEsSGGKwSdJihgx0GsC/FCfn5grMJmk3hyjMIX2pAhZjEV/FmOWOZX6uu+JCeeqdB/ncVnK/Qx1aKsuESIKRCbFwoSIiBWhdghPyc2TGEztiiLFTFkI5bESOM3hziGLwz2l+tjhRnioBiFfVle/tB8sU1ZAnaEAu8vyIoLkecHa+dyZPHDuWCX+EJm/JAOPz8pfGguPH5AoHzu2DO+MD5WofNBVOAfIx+LU0S5UQp73JSfGyzlTSF2yS+MVYzFEwrggpTr4xmigqg4eZx4UTYnNEoeD74MhAMWCAB0IIE1HUwG2UDQ2dfYB+/kPUGAA8QgE/CBvYIZGpEo6xHCaywoAn9CxAf5w+P8Zb18UAj5r8Os/GoPMmS9hbIROeAJxHkgDOTCe4lslHDYWwJ4DBnBP7xzYOXCeHNhlfb/e36I/c4wIROuYCRDHulqQ5bEQGIAMYQYRLTB9XEf3AsPh1c/WJ1xBu4xNI/v9oQnhC7CQ8I1Qjfh1iRBsfinKMeBbqgfpMhF+o+5wC2hpivuj3tDdaiM6+D6wB53gX6YuC/07ApZliJuaVboP2n/bQY/PA2FHdmRjJJHkP3I1j+PVLVVdR1Wkeb6x/zIY00fzjdruOdn/6wfss+DbdjPlthC7AB2BjuBncOOYI2AjrViTVgHdlSKh1fXY9nqGvIWI4snB+oI/uFv6MlKM5nvWOfY6/hF3lfAnyZ9RwPWZNF0sSAzq4DOhF8EPp0t5DqMojs7OjsDIP2+yF9fb6Jl3w1Ep+M7N/8PALxbBwcHD3/nQlsB2OcOt3/zd86aAT8dygCcbeZKxIVyDpdeCPAtoQZ3mh4wAmbAGs7HGbgBL+AHAkEoiARxIBlMhNFnwXUuBlPBTDAPlIJysAysAuvARrAF7AC7wX7QCI6AE+A0uAAugWvgDlw9PeAF6AfvwGcEQUgIFaEheogxYoHYIc4IA/FBApFwJAZJRtKQTESISJCZyHykHKlA1iGbkVpkH9KMnEDOIV3ILeQB0ou8Rj6hGKqCaqGGqCU6GmWgTDQMjUMnoJnoFLQILUGXoGvQGnQX2oCeQC+g19Bu9AU6gAFMGdPBTDB7jIGxsEgsBcvAxNhsrAyrxGqweqwFPucrWDfWh33EiTgNp+P2cAWH4PE4F5+Cz8YX4+vwHXgD3o5fwR/g/fg3ApVgQLAjeBLYhCRCJmEqoZRQSdhGOEQ4BfdSD+EdkUjUIVoR3eFeTCZmE2cQFxPXE/cQjxO7iI+IAyQSSY9kR/ImRZI4pAJSKWktaReplXSZ1EP6oKSsZKzkrBSklKIkVCpWqlTaqXRM6bLSU6XPZHWyBdmTHEnmkaeTl5K3klvIF8k95M8UDYoVxZsSR8mmzKOsodRTTlHuUt4oKyubKnsoRysLlOcqr1Heq3xW+YHyRxVNFVsVlkqqikRlicp2leMqt1TeUKlUS6ofNYVaQF1CraWepN6nflClqTqoslV5qnNUq1QbVC+rvlQjq1moMdUmqhWpVaodULuo1qdOVrdUZ6lz1GerV6k3q99QH9CgaThpRGrkaSzW2KlxTuOZJknTUjNQk6dZorlF86TmIxpGM6OxaFzafNpW2ilajxZRy0qLrZWtVa61W6tTq19bU9tFO0F7mnaV9lHtbh1Mx1KHrZOrs1Rnv851nU8jDEcwR/BHLBpRP+LyiPe6I3X9dPm6Zbp7dK/pftKj6wXq5egt12vUu6eP69vqR+tP1d+gf0q/b6TWSK+R3JFlI/ePvG2AGtgaxBjMMNhi0GEwYGhkGGwoMlxreNKwz0jHyM8o22il0TGjXmOasY+xwHilcavxc7o2nUnPpa+ht9P7TQxMQkwkJptNOk0+m1qZxpsWm+4xvWdGMWOYZZitNGsz6zc3Nh9nPtO8zvy2BdmCYZFlsdrijMV7SyvLRMsFlo2Wz6x0rdhWRVZ1Vnetqda+1lOsa6yv2hBtGDY5NuttLtmitq62WbZVthftUDs3O4HderuuUYRRHqOEo2pG3bBXsWfaF9rX2T9w0HEIdyh2aHR4Odp8dMro5aPPjP7m6OqY67jV8Y6TplOoU7FTi9NrZ1tnrnOV89Ux1DFBY+aMaRrzysXOhe+yweWmK811nOsC1zbXr27ubmK3erded3P3NPdq9xsMLUYUYzHjrAfBw99jjscRj4+ebp4Fnvs9//Ky98rx2un1bKzVWP7YrWMfeZt6c7w3e3f70H3SfDb5dPua+HJ8a3wf+pn58fy2+T1l2jCzmbuYL/0d/cX+h/zfszxZs1jHA7CA4ICygM5AzcD4wHWB94NMgzKD6oL6g12DZwQfDyGEhIUsD7nBNmRz2bXs/lD30Fmh7WEqYbFh68IehtuGi8NbxqHjQsetGHc3wiJCGNEYCSLZkSsi70VZRU2JOhxNjI6Krop+EuMUMzPmTCwtdlLszth3cf5xS+PuxFvHS+LbEtQSUhNqE94nBiRWJHYnjU6alXQhWT9ZkNyUQkpJSNmWMjA+cPyq8T2prqmlqdcnWE2YNuHcRP2JuROPTlKbxJl0II2Qlpi2M+0LJ5JTwxlIZ6dXp/dzWdzV3Bc8P95KXi/fm1/Bf5rhnVGR8SzTO3NFZm+Wb1ZlVp+AJVgneJUdkr0x+31OZM72nMHcxNw9eUp5aXnNQk1hjrB9stHkaZO7RHaiUlH3FM8pq6b0i8PE2/KR/An5TQVa8Ee+Q2It+UXyoNCnsKrww9SEqQemaUwTTuuYbjt90fSnRUFFv83AZ3BntM00mTlv5oNZzFmbZyOz02e3zTGbUzKnZ27w3B3zKPNy5v1e7FhcUfx2fuL8lhLDkrklj34J/qWuVLVUXHpjgdeCjQvxhYKFnYvGLFq76FsZr+x8uWN5ZfmXxdzF5391+nXNr4NLMpZ0LnVbumEZcZlw2fXlvst3VGhUFFU8WjFuRcNK+sqylW9XTVp1rtKlcuNqymrJ6u414Wua1pqvXbb2y7qsddeq/Kv2VBtUL6p+v563/vIGvw31Gw03lm/8tEmw6ebm4M0NNZY1lVuIWwq3PNmasPXMb4zfarfpbyvf9nW7cHv3jpgd7bXutbU7DXYurUPrJHW9u1J3XdodsLup3r5+8x6dPeV7wV7J3uf70vZd3x+2v+0A40D9QYuD1Ydoh8oakIbpDf2NWY3dTclNXc2hzW0tXi2HDjsc3n7E5EjVUe2jS49RjpUcG2wtah04LjredyLzxKO2SW13TiadvNoe3d55KuzU2dNBp0+eYZ5pPet99sg5z3PN5xnnGy+4XWjocO049Lvr74c63TobLrpfbLrkcamla2zXscu+l09cCbhy+ir76oVrEde6rsdfv3kj9Ub3Td7NZ7dyb726XXj78525dwl3y+6p36u8b3C/5g+bP/Z0u3UffRDwoONh7MM7j7iPXjzOf/ylp+QJ9UnlU+Ontc+cnx3pDeq99Hz8854Xohef+0r/1Piz+qX1y4N/+f3V0Z/U3/NK/Grw9eI3em+2v3V52zYQNXD/Xd67z+/LPuh92PGR8fHMp8RPTz9P/UL6suarzdeWb2Hf7g7mDQ6KOGKO7FcAgxXNyADg9XYAqMkA0OD5jDJefv6TFUR+ZpUh8J+w/IwoK24A1MP/9+g++HdzA4C9W+HxC+qrpQIQRQUgzgOgY8YM16GzmuxcKS1EeA7YFPg1PS8d/JsiP3P+EPfPLZCquoCf238BOUR8TbexsacAAACWZVhJZk1NACoAAAAIAAUBEgADAAAAAQABAAABGgAFAAAAAQAAAEoBGwAFAAAAAQAAAFIBKAADAAAAAQACAACHaQAEAAAAAQAAAFoAAAAAAAAAkAAAAAEAAACQAAAAAQADkoYABwAAABIAAACEoAIABAAAAAEAAADMoAMABAAAAAEAAALKAAAAAEFTQ0lJAAAAU2NyZWVuc2hvdOUVujMAAAAJcEhZcwAAFiUAABYlAUlSJPAAAALYaVRYdFhNTDpjb20uYWRvYmUueG1wAAAAAAA8eDp4bXBtZXRhIHhtbG5zOng9ImFkb2JlOm5zOm1ldGEvIiB4OnhtcHRrPSJYTVAgQ29yZSA2LjAuMCI+CiAgIDxyZGY6UkRGIHhtbG5zOnJkZj0iaHR0cDovL3d3dy53My5vcmcvMTk5OS8wMi8yMi1yZGYtc3ludGF4LW5zIyI+CiAgICAgIDxyZGY6RGVzY3JpcHRpb24gcmRmOmFib3V0PSIiCiAgICAgICAgICAgIHhtbG5zOmV4aWY9Imh0dHA6Ly9ucy5hZG9iZS5jb20vZXhpZi8xLjAvIgogICAgICAgICAgICB4bWxuczp0aWZmPSJodHRwOi8vbnMuYWRvYmUuY29tL3RpZmYvMS4wLyI+CiAgICAgICAgIDxleGlmOlBpeGVsWERpbWVuc2lvbj44NjA8L2V4aWY6UGl4ZWxYRGltZW5zaW9uPgogICAgICAgICA8ZXhpZjpVc2VyQ29tbWVudD5TY3JlZW5zaG90PC9leGlmOlVzZXJDb21tZW50PgogICAgICAgICA8ZXhpZjpQaXhlbFlEaW1lbnNpb24+MTQ1NjwvZXhpZjpQaXhlbFlEaW1lbnNpb24+CiAgICAgICAgIDx0aWZmOlJlc29sdXRpb25Vbml0PjI8L3RpZmY6UmVzb2x1dGlvblVuaXQ+CiAgICAgICAgIDx0aWZmOllSZXNvbHV0aW9uPjE0NDwvdGlmZjpZUmVzb2x1dGlvbj4KICAgICAgICAgPHRpZmY6WFJlc29sdXRpb24+MTQ0PC90aWZmOlhSZXNvbHV0aW9uPgogICAgICAgICA8dGlmZjpPcmllbnRhdGlvbj4xPC90aWZmOk9yaWVudGF0aW9uPgogICAgICA8L3JkZjpEZXNjcmlwdGlvbj4KICAgPC9yZGY6UkRGPgo8L3g6eG1wbWV0YT4KsZNG6AAAQABJREFUeAHsnQd8FcX2xw8QOglFAYHQQaWq8AciCASQ3pugKJZnAalKR0CadAFpCk+f+p4NpaiAICBiAQGFUAJIDb0ngPT+P78T5rLZ7G2QwE1yzgeyu7Mzs7O/nbMzu/ee701VvHjxG6SmCqgCbhXInTs/ZciQUfYHXbt2zW1G3aEKqAJxFUgdd1O3VAFVwJMC6jCe1NF9qoBNAXUYmyC6qQp4UkAdxpM6uk8VsCmgDmMTRDdVAU8KqMN4Ukf3qQI2BdJkz559sC2N0qdPT08++SRdvnyZ/vnnHwoLC6PcuXPT4cOHKWvWrNSkSRPKnz8/7dmzh27cuEGZMmWievXq0X333UeHDh2StCpVqhBeWZcuXZoKFixI+/fvp/Lly1PNmjXp7NmzdOrUKfthdVsVCEgFgoOzUVBQWmlbqiJFisT74LJYsWL0448/0hdffEEDBw6kjRs30rlz56hPnz708ccf0/Xr1yl16tT02Wef0X//+19asGABVxhEqVKlor///psaNmxIkZGRLmf6888/KU2aNFSuXDkpi/IlSpSQ9YBUSBulClgUyJu30K0PLi3pXlcfeeQRyQMHGjlypDjHiBEjKG3atDR+/HjCqFKpUiXKlSuX5MuYMSP17duXfvvtN1q6dCldvXpVymEbTqOmCiQ1BTw+w2DEgGE0gU2fPp0iIiLo0UcfpZkzZ1L9+vWpcOHCsq9Dhw5UpkwZOn/+POXJk0fSjhw5Qt988w1hOWDAALpy5YqMWP/73/9kv/5RBZKaAo4OEx0dLedRrVo1eumllwgjBQxTqv/85z/UqVMn2W7WrBlt2LBB1jE1a9myJU2YMMGVZv3aTc6cOalFixby3IPnoeDgYCmnf1SBpKSA4zMMTuCHH36ghx56SJ5DMGrgQf3zzz+nN998U84PztClSxeZbn3//feukQYvCR577DF5hjlx4gSFh4dLfjzTGMfbvHmzvDiQHfpHFQhwBazPMG4dBueQLVs2mWLhbZkxjAx4K3b06FGTJEu8WcM+OImTYVqHUQZvxy5duuSURdNUgYBUwGeHCcjWa6NUgbusgNVhHJ9h7nJ79HCqQJJRQB0myVwqbWggKKAOEwhXQduQZBRQh0kyl0obGggKqMMEwlXQNiQZBdRhksyl0oYGggLqMIFwFbQNSUaBoPTpY7/2kmRarA1VBe6yAtYvCgeFZL3vLh9eD6cKJC0F0qfP4GqwTslcUuiKKuBdAXUY7xppDlXApYA6jEsKXVEFvCugDuNdI82hCrgUUIdxSaErqoB3BfxymJw576cHHsjtvVbNoQrcIwXQRxPTHB0mXbp09MH7U+Idt2GD+hyG3DxeuiaoAoGiQP16TyZqUxwdBhGW48dPdB0YocVFisTCLlyJuqIKJJACmbh/pU4dC1xBlVkyZ5aaEcWbnaN+jQHVlS5dWkL+rFlDJBmglvvuyyFpJh8oRkgz8Bako2yO7NnjpGXMmEGIR/6MSkHmINYlGtG7dw96+ZWO1LJFM6pbtzZdvHiRMvOJrItYb82q66rAHSsQHv4Ew1H20Zat2ygXT6lq1apOy5b9SlWrPs797hKFhATTF1/OYnhkPqr8eEVBdO2O2ku7dkURRpTTp/+RNsybv4gdIzW1aN5IwuCDg7PQVzPnClASaWfPnqP7789B8xcsoZMnT1LrVs0EVonyCxct9ek8HB3GWrJWrRo0bPhIJlceoOHDB1t36boqkCAKREZupQoVHhOHKV26BP29bQcdPXacZs3+XkaAZk0bMHk1lnWHUePLr2YLnKVe3Vq0bt0GKWcagpv9t98tYIe5TM3ZSVDuwIGD9M2s72SUqVy5IhUvXoTWrFnL8Mk0NGfuj+JIpry3pUeHQeMwHYOzwA4ePBRnSPNWue5XBXxRYB/3r+rVK8tULF++vLRi5WoqXqwIlS1bii4yMCVDhvTiOKgLIwPwxDCMPMeOx4WugGYEZ4FdOH9BymH69iSPWleuXGUMcjo6dPiI7EdejDrerGbNWpTLOKynzPjS2blz56lokSKSrWCBAp6y6z5V4LYVwBSrZq1q7BCgCl3mEacc/frbH4whXswI4luP2jd9RY7zzz9nKG/eWGikObB1v0krX+5R2rv3AH0/b6H0Z5PulNfssy43btxEK35fKf89jjAoNH/BD9Srl2GRXSWKR2K2Vq3rqsDtKbBp0xZq1bIJLfv5N6kAo0Cd2uE8mpA8ZzjVuvKPNdSoYV16+KFi8pwye868+Nm4AsyQHudnn2LFCguu+DSz8/yxEyeOyXQOZVJVCqvm1QUwNcMbiwsXLvhzHM2rCtyRAnjbhWmT9ev1ThXiY5CrV69wPvddGW/J8CYO0zJ/LVPGTC6H8TrCoHI0WJ3FX5k1/50qABa3L2YFTbrLD8fjf3dstyaHd1yVVqAKJH8F1GGS/zXWM0xABdRhElBMrSr5K6AOk/yvsZ5hAiqgDpOAYmpVyV8BdZjkf431DBNQAXWYBBRTq0r+CvD3z9Ik/7PUM1QF7kABfA6JDz5hQVcT4tOcO2iMFlUFAl2BdOnSu5qoUzKXFLqiCnhXQB3Gu0aaQxVwKaAO45JCV1QB7wqow3jXSHOoAi4F1GFcUuiKKuBdgYBzGGWfeb9oySWHP7SWQDnnu+IwDz/0oM/n6y/7LH/+UMqSJRbL4/NBNGNAKOCNIQZUkidDTD+CzGBVKleiUqUe9pQ9QfZ5dBhwnNDZ8aFNcJYszIRKR4ULFSJzZ8icORMVLBg3zj8bc6SsDLNixYpShw6vSOy1+fAH5e+/P+7v0vjCPkPkJ+o2x4cCr3d8jeO/K1B2bqta0lAAUArT0U2L7QwyXM/w6lUIqCTDLAOPDP+NVatamUIZmgFIxvoNm2jnzt2yC7wxwC7Qf2HoN1a+GdJAl8ExsPTH3EZc9u/Xm0JD89GZM2dp+S+/UsmSJcRZEAW3cNGPQpNp2KCeQAvgSD169qHSpUvRv156gUED5yhHjuzU8fWu9Hz7Z/mkg6nDa6/Q5CnT6JVX/kV588SCC7Zt2y5pvrLPBg7oJ0LD2X76aTnjcw5Qrlw5qUH9ulLn51986c+5a967rABumC1bNJYI3gwZMvCNOPZ+nZuvoZ1BFhZWXmYOT1QJo19+WcEx+RVcN9n9Bw7Rvn0HGNaXnR55pJTQY7JmC6GTMadoU+QWatumhcAurl69yiilIMEpXbhwUcLsv5o5RxylUcPadOrUPwwEDGYs0w8+0WMgl+MIkyfPA1SoUEHq3OUN6tP3LVq48EeR9tixY/TGm71o8eKl1LhRA3rvvak0evQ4aVTZsmUIdI1u3XvQiJGjBVyAtLnffk8xMSdp0NtDpbMXKVyI3h48lIa/M5Iee+wR8XDDPuvarQcdPhKLwJED2v4MGfoOlx3GjKm5FBZWkf5YtZpADvn0v5+ROotNrADcLFggP505e1Z4Y/PmLXLd3Q2D7MfFyzjm/oqwxNZHbBJAHwB7aZgfBvwSqC+gyDzIXDGwxoBIWrFyDW3YGBnnbDFqzP12ATPH5lOmTBn5hr9StpEJM6CwSuUpMvJvWrJ0Oe3bf5BKlfR9Kuc4whQrVkxGDjt8YMfOXdIwDHHw3Oeee0a2MaIgrV69OlS3Tm2J/8cUK3OmTMKVkkz8p2jRojK969UzlkJzjGFtOCFf2Gd4Thk4oL8c9xKzqtKmdWy6OZQuA1CBPHlzU/SJGGkZyC2GL+bEILvGo4MxTJ0wGj1ZK1ySoqNPSj8w++3Lq1evieMh/dq163T06DHJAnorpmqY5uFxIjQ0r6TvidknS1/+OPa6HTt28HDXTp5ZrIAB40BY4k7w1cxvaP36Da7jfPD+ZJoy9QP23s304b/fl3Tkw5QN9vff22Q5eMgwQYDKBv8x7LNdu3cT2Gf7eapltzrsiHBKTP3atGnND3lhkuX69WsuFq+9jG4HlgIHDxzmaXsJaRSeL8zzAxhkuNsfZyhf++fayv5r3MdwU4adOBEtyx8WLhGKjGzwH/TD9Df7lklzWhrHNPtOMRr29KnTtJrpl/6ao8McOXKUNm6KpMmTxvPU6gotWRKfO/vpp59R504d6Pz58+IQ/foPot2793BaR27DDWHbojF4TsEoMnHCWBo/YZJMo6ZMnijDKZypV+9+PrHP/vprrTyrTHpvPDvrZeFVof6IiA308ssvUvny5WjqtA+QpBagCoBwCZrlM0+3YmchRiPFYlycGGTR0TE888ggzzxwps1btlG7Z1pLf8OzCZ47AP+rUaOq62Hf+bTjo5dWMlmzSeN6/AKpkIxyq1evpag9e52L21I9csng4Rn54QzzTneG4fL06dPi7ciDqRMA0jgpY7iTYO4IzCcMI0VISAg/dJ0yWSTNyj4Lq1SR68ri2r9t+3aZt+IFwj82EBuOCce2joaugroScArgDRlullZzxyDDGzD0Jxj6EWYrmJIbQzmMNMAo+Wv4JQA4rZk5uSvvM5cMnd6Ts+AAxgnMwZxYtRgSrfnQQKuzoCzSrOwz/HBT1qxZTbV08NAhuRvYnQUZnI7pKqgrAaeA3VnQQKc0pBtnwTr6kdVZkOauHPZ5M9xk/TWPI4y/lWl+VSA5KmAdYRxfKyfHk9ZzUgUSQgF1mIRQUetIMQqow6SYS60nmhAKqMMkhIpaR4pRQB0mxVxqPdGEUEAdJiFU1DpSjAJBqS0/h5ZizlpPVBXwQwHrV2uCrt+47kdRzaoKpDwFzHfecOY6JUt511/P+A4UUIe5A/G0aMpTQB0m5V1zPeM7UEAd5g7E06IpT4EEdxgAKvBN44QycALUkqcCVphJUjnDBHcYb5gkf7FI3bt19ktLf5BOflWsmRNcgWSDWcJrNKv3I0gMgToI3gFuKXeuXHH2Q0knTBICxbxhkZAHKCYsrQYIhzfeGIKLihcv5gpldUI6WevU9cBQINlhlhC4NXzYYHqtQ+zdvU/vHvTdd/MoPUdfPtuuraCXED4aFbWHRo95l8NIm1HdurU52OciwwUy07qI9XJlvGGRVq9ZQ6g7Ojpa0DeDhwzn9RgaN3aUBJQhtNmwzOyXGg48ZvQIDkQ7TaDcoB12pBNixNUCR4Fki1nyJPGVK1cFtQTmGO7uuMvXqlWDhg0fSXZMkjcsUntmlv32+0oaM2Y8bd+xk+OsG1G1qk9IyHP3N3rSOyNGu0AJ9jYh0g7HG/7OKNq6dRvVrBkeB+mkzmJX7N5vJ1vMkl1aA1xDOuL3Yfi6ACB/ZUqXdsQk+YJFAo2wfLnHqGSJWC7UAYYklCxVgvbzErZ37z45jmzY/mDK1q1rZ4njx2i3c1cs9dCWTTcDSIFki1kyJBg8V+A/nmGMgWiJNAAEwLZFR3XCJPmCRTpx4gSBUDN9xoemeqpevRrV4+kdDCOY9WsJrky80rbtUxS5eTN99NEnMn3EPow6BulkzavrgaFAssUsgb5y8OAhen/aJKFqGBwOZIezTJ40QZ4tNjJxEHCL+Qt+oF69YuF8164xLYbJNr5gkWb8+yMaNPAtmjb1PR5JiGbPnstTtBWCUwLjjDkhcegz1ssOHlqrls2p3GOPsqNcpWPHj8dDOu3bt99aRNfvsQLJHrNkRyaFh1dn+mANwrMJpmlWogccyYpJwrXB6OALFglv3i4yOsdKAAGZ8Pz5CzIlw1u5MmVKuy73JXbo3377XUYTPEhaaTM4phXp5CqkKwGjAF7YWK81GoY0oJLsyKMkhVlyhy/CydqwUvEwSRABzzm+YJGcUE6Y5hnLxMhZsHWNwblgThwyHNOKdDJldBk4CtidBS1zSkO69aaMa3uvMUuO5Es01MnWrYvgqdpBp12Jmha1Zw+TCfck6jG0clXAFwX8chiMFk4jhi8H0jyqQHJQIO7H68nhjPQcVIFEVEAdJhHF1aqTnwLqMMnvmuoZJaIC6jCJKK5WnfwUUIdJftdUzygRFQhKpZilRJRXq04OCuDzH2NBNxSzZLTQpSrgqID1+4w6JXOUSBNVAWcF1GGcddFUVcBRAXUYR1k0URVwVkAdxlkXTVUFHBVQh3GURRNVAWcF7qrDPPhgcYl7cG6KpqoCga9AojsMQoY/eH+KKNGta6cEhfwFvrzawsRSAAFnwcFZHKsvkD+U6tap6bjvThM9OgzYZPfff5/rGPfdl0NGiBIMrYAj4P00uGNBQbeiBOysMAR5jR8/0VWHrqgCt6sA+l+mjBmleKmSD9MjZUsz1iuThMuDMYF9YJ4dOnyE/lj1p+QDIAXOBeCK1ZCWO1dO4VK4czxrfrN+q6eblJvL/v37UN48eWRr27btNHnKNBo6ZJCEkSISMxcfDNSY69evcSOz0qC3hxLQRnZW2C6GZPRm9tjLr3S0HUE3VQHfFEDIeaOGtenEiRiBOy5fvoJKlHhQCqPjR+3ZS5UfryhRv7uj9tKxY8dl/8KFS6nNU82FC4EIXsAmv/hyFuXOnYvq1A6no0ePcyRvHjp46AgtXrzMp8Y4jjB58+ahIoUL0duDhzL3ayQ99tgjLnrLt9/Oo/5vDeLGR9POnbuoR8++wgWrER4uYaZ2VphPrdBMqoAHBUJ46gUQy+8rVtGs2d/TCQY/wjF27NhNPy//TUqCKTHz67m0Zs3aODUhfc6c+cysW0AXGDQJ6GPRooUZQrmPFi/5maJjTtKunVFxynjacBxhihYtKsNcr56xJBh4LKZasJ27dsny0uVLDN/bIeunTp+izFkykbLCRA79k8AKgDYTEhlMTZvUF9Lpj4t/jncEcBys3/kyGQDWOH/hgmxeYKhKBqa3RrGzPVmrGmXg6Vpm5kXsYf6dr+boMH//vU3KDx4yLA6EAInXr936ib8b1299KQ37nFhhSFdTBe5UgcjNW5lDt5WaN29EeKgHXSZd+nSuai3fj3SlYcUp/dLFS9KvIyI2Cpo4TgEvG44Oc5wZX3+sWk1TJk8kPK+A6NGrd7+4VbGvxHUXIidWWNxCuqUK+K9AUX6xVKHCY9IPgfI6fOQInT13jurXq0U5smcTR/K5Vvag9DxbwoN+7K8H3OB+G+lzHakqhVWz93vXsTH/CwkJ4WHwlCvN2wrentlZYd7K6H5VwJsCadMGCUTy0qXLrqzon+hr7hBNroy2lWfbtabv5y1ioMsZysr9u0GD2vTlV7NtuW5tZsoY+yYOKY4jjMmKYc8fZ0E5J1aYqU+XqsDtKgC6qd3QP+3gP3sep+3Dh49SrZrVKObkKcrJH5us3xDplM0xzeMI41hCE1WBZKBAFv5ZFvycynF+2+v0ssB6ij6PMNZCuq4KJCcF8AyE//6a4+cw/lai+VWBlKKAOkxKudJ6ngmigDpMgsiolaQUBdRhUsqV1vNMEAXUYRJERq0kpSgQFMQf/KipAqqAewXwWQ8+IIUFXeUvp6mpAqqAewXSpYv94jFy6JTMvU66RxWIp4A6TDxJNEEVcK+AOox7bXSPKhBPAXWYeJJogirgXgF1GPfa6B5VIJ4CSdphQLV54IHc8U4q0BMQ7l2sWNFAb6a2z0GBgHKYLFkyU2i+fA7NdE5q2KA+tWzZ3HlnAKcWKliQOndSis6dXKIkwyXDBzggWFpZZDjxHNmz08MPPSgf8ARnySLcssKFCgkYA+woY2BLZeZYBOTJnSsXYZQw1qxZU3EApBuzs9GQDlwOeGieDMfBMQoWLBAnm52bhp1IA2sNDmusQIH80nZsg6JjDNQR8yEW2mZ0wPGs+awamHMEx+3B4sUoiNFAav4rkCS5ZLjo55m+kS1bVho1epyglvr3602hofmEU7b8l1+pZMkSBGdB6Ohhhqpl4fjpQYOGSEcDt2zOnG8ZZtBU8gO0FhW1h/7z8afMlqokKr7wYnsazXU7sdFatmhGdevWZojBRXG8dRHr4ymPNo4dM5LAosKntLxJb/boI6goOzctb9689HTbp5hRdVQcsV//gTR50ng6ydF4iB9ftuxnatasCQ0bNpJO//MPjRwxjNlWM5ljtVTWUW+Xzh3FMXE8RJyijldfe9mlwcJFP9KhQ4clH/KEhAQLKyFewzXBUYFA4pI5higbLlmfvm8JNXDEO0NdXDJ0lG+/m0evvvovql27FnfKcwS8UoeOXVzhonCYY8eO0dBhI+TuDZgGRpnHw8IoJiaGzrHDIeT0jTd7Sb3/njGNnecMbdq0mS5fuUwfffSJ3K2LFC5E9jbUqlWDhg0fSfsZvTN8+GByZ4j3fmvA2xy3/Q+NGjmMwsIq0e+/ryBw08AdwJSoZs1wpiVmYlLiYaFzojNjH1A8c+Z8R+siIqT6so+UparVnqDLly6Jk1ep8rjcKC7xdkhwMBUuXMgFKpwwfixVqlhByhkNsNG7Vw92vuXMzppFTz/dxpVHMuofjwpYuWSAssDAJbvGrLK/1kZw/ysg8f6Iy0f0JLaNGS4ZUEsgzmCGULhwQeGSgXPWhNFNicol27Bhk7QFIL+iRYvww2sxuRvbY6t3MOQPdpGRNrt5BGncqBE98kgZWrI0ljB4+vRp2Y8TBEGzdKlSsm3+OLHREFKK6RicBXbw4CERypSxLtEeOAts7779VKZMKTpw4AB169pZRgGMbDuZyvnB9BnUocOrNHHCOFq3bj29/8EMmjHjI2rfvh299NLz9O67E2n16j+ZlFhLRsj//u9zevWVl6jqE1Vo+/adVJQf3jEaGTvCI1WhwoVk02iAjdDQvLTox8Wx6dt3qMOIEr79CSQumeNDv5VL1rffAML/CxcuytnZCR07GOaHuSXuzFazOtCsWXMId2VwmpfedJgcObJLZ8fzA6You3ZH0ZWrV+WOj3qc2oARAP+LFikihypY4NadxHpsrOPOYp4p8JANJzPcNIxaIIbA4NATJ06WkadChfIyIq5e8yd1f6Mnbdy0iVq3bkkrV/4hz1pA4v755188Sp6U81n5xyq+O+2S6SkeQmF4abGHbxAwqwZ79+6nsmXLSHrJUiVlqX98VwBMss+/mMUssvQJyiXDqATYn6/mOCXziUuGI/DocOTIUe5YkTLvv3z5Ci1ZsjTesbfzHTV16lQyjTGdCB168qQJctfeuDGS79In+U6+hrp360yYAgJH68RGm7/gB+rVK5bIee0ak0TcQKIwcr3Vv68M0XiuWLRosTB2W/FbtXKPPSpTwmPHj8uIA3QoUSph8mKKNnHCuzLVBLvqk08/kxEJU08QQGFr2KEaNWpAa9euE6dYv2EjM9wm8PoNeRZCuyvzDcJq38+bT127dKIqlR+XZzujgzWPrjsrkCy5ZEFBQZSR5/5nzp51POv3p02mCRPeY7zsTgoPr86ozho0ZOg77DCp5S5vCuFOnZ6JhmauCseys9GQhgfyCzwvxXHDq1czxWW5avVqmWK98urr8uxk6sJOJ24a3o5dY6In6oOhTrzUwLTTV0O7OVbCNRK7K4djWdvjLp+mx1Ug2XHJrvJ0yslZqlZ9gsnr9RnJGS3OYpUB0zv+F8di024l4k5sZ6Mh7VbnTsME9rxx6kibNnZ6iFHG3jmduGn2PDgXf5wFB7e3O06DLBv2Y1l26aoHBVIMlwzPEbn4c5WNGze55vQYMfCTAzt4tEksK1fuMX6Ij33LlVjH0HqTrgK3yyVTkF/Sveba8rukgBXk5/iW7C61Qw+jCiQ5BdRhktwl0wbfSwXUYe6l+nrsJKeAOkySu2Ta4HupgDrMvVRfj53kFAhKk1q5ZEnuqmmD76oC+NzPhHQEXeOfDVdTBVQB9wqkT61cMvfq6B5VwIMC+gzjQRzdpQrYFVCHsSui26qABwXUYTyIo7tUAbsC6jB2RSzbd4pDcoKFWKrX1SSowF1xGNBkkqJ5wiHlzx8ahzLjdH7dunbib2rndNqlaXeoAOKPEODnZAX42tStU9Np1x2nuXUYhB0DXFGq5K1wWsAuEAtvDHQW3EUNRgjpCO4CpA5LGNY7dHhFwoXNu2zZcfMPjuMrDsnpeFa8E0KgTah0dsY+GbxTMIMqELgFQ/tNiDO2kR/Hxzng/GBynOKecUivd3yNKlSoQDiOMSCdcCwny5kzpwBFsA/tsuKfcHx0AKCj3JV3qjOlpQUsZgkdZvSod+jSpcsS+DVy1BjeHiGhuoi///yLmbRv7z7q27enhCgDg4M8WfjC9+ndQ8qgIw0eMpyeb/+sdIIOr71Ck6dMo+PHT7iuM47jKw4JhBD78Vq3askgjsISJIaALzgFYmxAZkGY8569ewXXhDb99tsKcZbGjRtKcFjWrCE0kNFPpRi+0bZNK4nr3sAxOytXrvKKQ3qcCTQYORrUr0t58+Rhis53os91/kwLDvjXX+vow48+dp1nC0ZKhYdXEwJOgwb1qCH/BzgDeXv07CNIJvDKwE2AQwMUAg6CWqwCAY9ZQjMRpjvo7aHC0wII4iyHHo8bN4HK/185atqkkbDFrnInnj7jQ8mDMkOHdqDffl9J8+ctoBeZuNKkcSOa++33wv1CXU6GkcgXHNIWhiDYj1ecO9mKFSvp629i8Tp1aj9J1ao/wW1YIcFqwDTBgJP9fcUKem/iuxIWvY8pMh07vsrtaiM8ArTh9U7dpIwvOCTE7D/1VCv69L+fUWTkZmrD64gKHTBwMHf4jBLf//En/5Vj16wRTo8zb61v31iQSGNmAUyYMJl5bYdpyJBBLjAGCDjAUj3CSKcXnn9OHUbUi/0T8JglNBMkDcDnYCChYDjszXdq2OEjR7gDrqQ8HE05aOBbdCL6BL3zzijKziNNeY50LFniYcl3YH8sDkk23PzB1w58wSE5HW/MmHfl7jy9Vg36+uvZ4ihPPdWSQX91mHEWSQ8//CDVq1dHwIO4e2NKCGeB7WLEUjVmjRFTowDDQDtgt4NDCg0Npag9e6Q8QqcBAwkNjUXe1qwZTvsZ74TwbTgmbkTPPfeM5AVYw0xdd+2KkrQjDD4000pJ0D8U8JglXCPEwxtDZ0AsukEujR07XnZ9w3f2Dh07M/wiI9NQKvNU5wRt2bLVlQ9TI8S6e+oA6DC+4JBwQPvxDhw8KETNqdOmU4sWTSXO//z58xRWqYIwwCLWbyRMh7Zt2y4OgVh9EDlh4KAdOxpLgbGSZ3zFIWH6hTBX2N59+wTmh3VMRQHxAPET9s47oxmjm4Pb10zaAD2+mvmNSyMTRn316i2OgRTUP3EUCGjMUpyW8sb8+T8IeG7G9KlCeNm+fQdt276dmjVt4oLiRaxfT5u3bJERZ9rU90Bgotmz58pIBADfxAljafyESa47vDmGrzgkUDbtx3t33Gh5QM+UKZMrfn/r39vokbJlac+evdy2pVSDnx0wRYN9NXMW9evXS57NsI1pIqZAVvMVhxQRsYFefvlFKl++nExLwypV5KnYRL45pGWM7E+iC+q9cPGCPN8N5enXBnbgTz/9jKmbHXjUi6Vs9us/yHp4XXdQIMlgluxtxwMpRgTA9GCYr+PtjplSmfx463ORMaq4m8LwcI8Ht4f4jRpeDBjbzhDAQQP7k684JKfj4Y6O4/sKY0NbMDI4EW5Mu7C04pDwWhzTLmNHGYOLKR/yYPplSDTYBnfaTO9Mfqcl2g36py95ncqntLQkgVmyXxRDvzTpmK8b3JFJw9LeGTGKnDx5Uh6+QY80BqYxzFccktPxUK8/hmPZ2+dU3opDypEjRxyU07WbzzvWPKjDvu1Ur0nzt92mXEpdphjMkrcLrDgkbwrp/sRQQDFLiaGq1qkKsAKKWdJuoArcpgJuvxpzm/VpMVUgWSugDpOsL6+eXEIroA6T0IpqfclaAXWYZH159eQSWoGgVPxDQmqqgCrgXgHLt8Qo6Ib1i1Tuy+geVSDFKsBfDnGZTslcUuiKKuBdAXUY7xppDlXApYA6jEsKXVEFvCugDuNdI82hCrgUUIdxSaErqoB3BdRhPGh0p1wyD1XrLlbAShtKKoLcFYdJjlyyO73A/mqC4DSwFZKT1a/3pMfTAUfCk4FghABGWJXKlZgAFMuS8FTmTve5dRg0VrlksRfDncgFCuQnwzIzeezsNuiIzm5loXljtaEucA6s7LJmzZpSy5bNKTf/hHtSNyCuTEc355I+fXqBqJhtRKSGV68isL7UqWM/CMnEEb74b6xa1cp8E8lLmAms37CJdu7cLbsQGQyuAph1MEQJA9BiNUTe4hhY+mNBTplRiXLJzhPuYE5RlLgAkyeNF7YYLvSyZT/T8l9+jcdu+/XX34S7hlBtYKoyc2h0x9e7emS14Xo8++wzzCUozYSZtBLGPHXaB1SZUU2wF15sL6w12Uhif0DtadmisYRlZ8iQgSk+sffr3Mx4q1r1ceFFQPMvvpxFYWHl5UbzRJUw+uWXFYyqqkAANcL2HzjEbIgDTDLKzkyGUnKdsmYLoZMxp2hT5BbmzLWQMHpAT0DpCQpKI8w3XKuvZs4RR2nUsDajsf6hrFmDmSv3g+N1dpLX0WGQEQdSLlkbgX/YhYM2uOBz5nxH6yIiZLcTuw0OA+cCrwwAQ0A7gKHyxmr77LMv6DOuFbTMUSOHSdlNmzbT5SuX6aOPPrE3J8lsF+QRGeHhCxcupawhITxiNpa2Hz12nGbN/l5GnWZNG1Du3LlofcQmqlSpPC1ctFRGmXw8knwz61vCL+a1atWEgYurpZOvWLlG9KlWrbJLB9zw5367QJgSLzz/NC1eslyQYXAksCXCuN7IyL9p69/bqWLFckx3fZhWr1nrKu9pxa3DKJeMaAfTcSpVrBBPP0AvZsz4iNq3b0cvMbDw3XcnOrLbUBA6GtonRpmsfMG8xfMDJpg37wN0muEecLjkYnny5qboEzFyOjg38BVgxYsVYaBhKQGnYHqF6do1Hh2MYeqE0ejJWuGSFB19Um7oZr99CeCjAbBcu3adjh49JlkuXrwoUzUwmfG4AQYdbE/MPln68setw5iTQSXgkoWG5hOWlrVScMLwH3dOwyU7cuSoYIdMvjJlSvvEJQM0EPBvIJHatn2KIjdvlrvp8GGDTVVyLOvxlv60TLhkQCW99uq/CNuGSzZy1FhGHF0ULtkGnt+CzmK4ZDgfb1yyjYyNLVnqFlfa1YibK6vX/Ml3pT/pVT4uRhcQcOwa4U5n1dHUgYvpjtWGZ5QSJR6if73cgQA8HzJ4oBS7wh0IobJJ2Q4eOEylS5eQU8DzhXl+qFChHONxl8uNpf1zbWU/QCMYyWHAAMN+WLgkDh0I1zQ943a9mf0anDr9D50+ddrnUcVav1uHsWZSLplVDZKHyREjhvE8+ZxMFz759DNaw86D0cjKbsOzh91u8EUGWNAdqw0IJzj9xAnjZO5tEE6rV6+h7t06CzO6/1tJk2UGgiVGkmeebsXOQoL+hT6HGHpYp3a4sOzM+UZHxwhnGs88cKbNW7ZRu2daiza48eG5Y3fUXqpRo6rrYd+udez2LSCl2Y/pXJPG9Rj+XkhuaKtXr+VBYa/Z7XGZqlJYtfg1uimiXLJYYdCpt279m+fDWV13PyOZXSOTbl/i7urEagMgcT93LOwDt8x6d8RUBW9/nF5E2OsP5G2ch5kymXbKNIynr3ZOG6ZoFy9ekmzQDCPzJWbeGUM5lPGVS2fKYQnoIqZv9mNa82DdCsHwaYQxFSiXLFYJTBdwlzNTBaMPlnaNrPus63AEJ1bbwUOHJBvg5nZDJ7N3NHuepLDtdA5OaTgX4yxYh2ZWZ0Gau3LY580AYfTX/Bph/K3cl/zKJfNFJc1zLxWwjjD3/BXMunWxr2XvpSB6bFXAVwXuucP42lDNpwoEggLqMIFwFbQNSUYBdZgkc6m0oYGggDpMIFwFbUOSUUAdJslcKm1oICgQlCaNXx/FBEKbtQ2qwF1VAB9s4pvWsKBr1259ye2utkIPpgokEQWs31fTKVkSuWjazMBQQB0mMK6DtiKJKKAOk0QulDYzMBRQhwmM66CtSCIKqMMkkQulzQwMBQLSYUBMMcSPwJDp9lpRunSp2yuYQkoplyyBLvTTT7eh2rVrJVBtCVeNvywxREj6Y/7W70/dgZg3xXHJwNwKYfpH8eLFJD4b0W9FihSOd22cWF2+lAO4DhF3VgO8wMrrCs6SRaLwChcq5JakCJDEgw8WF0wPIvZQBnc3tMuYvY0og3Mxd0G0o3v3LsILy3iTjYU8YIzZQRWoCywyT4aISqtWvrDKPNWXlPalSC4ZEELjxo6ScFlEvcFZAC04f/6cIIg6de4uMdmjR40gxGmDN/X5FzPJl3K4+E8+WZMQXIYw4AULFtL38xZQ06aNqWGDesIDQ8fv0bMPvfraywRnQRsWLvqRFi9eGqfvwFF69uhOMTEnJX3Rj0uYW9VKQlo3MOjif//7PB5P7BdmjA0c0E/OCSysn35aLk4JrlWH116hRYsW07Hjx6lP7x4UHR0tnKvBQ4bzeoxogk+GEbNvPh2O0yDeKFu2DP3rpReECZAjR3afWGX2OpLidnLgkrl9hkHnf2fEKGGTNWrUkB3jLI0YMZrZUHOoaZNGcr0QY92v/wB6s0dvwdb85+NPuRP3lX3oxLdbDhXs3LWb+vR9i8aMGc/OEzs9a9yoAb333lQB2aF96HiwYxxj/8abveI5C/a1a9dWOnjffgNc1BuMCF26vimoJHdtHDL0HXp78DA+37kMlavIzv6lxH6D1bbyj1WMWHqWCTcrpX3bd+xkqEIjqlb1CYnD7/5GT9ZutIuKgnZYDUSabt170IiRo+VmgvMAqwxOjfoNlslaJjmsGy4ZGGTz5i1y6WO4ZD8uXiY3PsMlO810F3DJ0jCID1yy7+ct5JvnYnqweBE6cOCgi0u2YWNkHHnQL8ElmzN3vty4lv+yUraRycolA1xj3/6DwiWLU4GHDbdfJPPGJUOdiGs3QAbcVTds2CiHOn/+AoUwDhRTKkzbevOdGHb4yBFZeiuHTMcZ7gbbHRV1ExeaWkaw5557RtJBbDFToR07d0ma058c2XMwsG1bnF0YHQz4wKmNmE4NHNBfjocY8rRp48sE9CigfCVLxPJ8D+w/wFimEgKwwMH27t0XB2BhbUC9enWobp3aHP9/gUfhjJQ5UyZhclnzJMf1FM0lgxfbzUo4wT4nnpkv5VDWzO9x98WUDh0c066vZn5D69dvQBaxGjWquzq/SbMuY07G0GOPPSqUF1e6hZPj1MYWLZqJM2LK16ZNa2auhUlRtB3TCtxMTpw4QXYGW/Xq1ahe3dqS1zzXuY5pWWnGU8spUz9g+uJm+vDf78senJs7VpmlaJJeTdFcMjtzC85idxgnnpkv5dAr8MzzwfuT5TkCTgL79NPPqHOnDsKmQufq1987nwto1f79ejMetCI71jXmWc2XuswfpzZ+P28+Nahflya9N56d9DKfV2xuOMik996lefN/oBn//ogGDXyLpk19T/bPnj1XIIQoh3YTpZIR2BzHuty9ew+fR0dOukVB8cQqs5ZNyuspnkvm68XzldVlrw/lLl2KHV2s+4AOBbPLTKvMPryWDQ0NNZsEftimTbHz2+DgYHE0d/wqexsxmqDMP4w0tRrmwEgzx8Ybt4s8bcMIYQxv8jAtxQ3EXZsw7QNCCNNTYzgm6veGkjX5k+oSL4iseuE8kIZrY3Q155asuGTmpLwtfWV12etxV85dh8qRI4c8HJp6wA8zdubMGbPquLQfC53d7iwoaOeFAa5tt3PnzruS3LXJPPu5MvIKjunu3Kz5kvq63VlwPk5pSFcuGVRQUwWSkAIBxSVLQrppU1UBcvs5jGqjCqgC8RVQh4mviaaoAm4VUIdxK43uUAXiK6AOE18TTVEF3CqgDuNWGt2hCsRXIAg/sqmmCqgC7hXAh6nmm+dB1/jrImqqgCrgXoH0qW/FZOmUzL1OukcViKeAOkw8STRBFXCvgDqMe210jyoQTwF1mHiSaIIq4F4BdRj32ugeVSCeAuow8STRBFXAvQI+O0zXLp2oVasW7mvyYU9C1OHDYbxmyZ8/1CsGyWslmiHBFcBnHe2eaeWxXjAi7qWlCQ0tONipAYj+A6IIoInz58/Tnj17CWG0gEIgorAEwx+AHcqcObNERWZimEPWrFn5f4gQZpzqtNaBE0+TJjXlD83vNWiqQIH8EomIKEsYoiMLFijgKoe2gh+GdsIQkYnoPcAlEJQFTtjVq9eEDYD9/fr2ksAk1Hfx4kUkqQWAArhWBw8euQkHySAh5QjAQ5/DPjhU0yYNaI8ARq5LdCauPa438hhD9GZOxmMhP0LZwYSAoW9aozrRj1AefdH0HVOHdYn6DHAlPg6FcwKR1LdvT4E8IGR25KgxjCt6mkBG+ZudBnH1+3m9cOFC4ki//Po73xnaSKdE5NxxBkQMGzbCekxZf5aJL6jj629m09gxIyXKDvgmOF3H17uKKNZCcMyRI4ZLPjjXmLHjqWKF/6PGjRsyhCJaBBg4aAjvv0rDhw2m1zrEkibBC/vuu3lUucrjjOQpxhfgojjZkqXL6CDjeXLlyikx+3nz5BF8kvWYun5vFWjUsA79939fiWOgM+PaBQdnofmMVyqQPx/fpNPRE1XCaFPkVua6nadGDWtzFOw/3BeCmdfwg/SlOrXD6ejR4xx9m4cOHjpCy5b9Si2aN2LHuSIzi99/XyVO17pVM3Emg3Py5cwdHQYMKNyRp8/4kA4dOhynHrC3IiO30HuTpjAA7x1hdCED7gAdX+8invjvGdPEc5HmzuCxAwYOFgbXu+NGC7Lor7Xr4mSvXx/QvpPCBzM7GjGbDMywffv2U8eOr9LTbduwwJ+b3fGWBw8eoqHsvI88UpZeeP454Zc99VQr+vS/nwm1JV4BTQgYBdav38SIrO1UsWJ5eujBorRq9V/06KOlhVWGRgI1Gxn598085YQvliYoiKKi9tHvK1ZRkyb1adfOKOYqFBfGwtKffqF8zO0uV66sOEwQ887mzP3RhQrz5cQdn2F+X7GSljP9EVSU4cMHy93ZVPYHQ+xKly5JA5gMCc//7bffZRfu+DB878b63RtJdPiDodEA6zDKZOWRzG75GWiB4dcYnAzDLJwFtothf7ly5zS7XUuMRsZ27YqS1SOHjyR7jJE55+SyPHzkmJwK+AcZMmSId1rof0WLFqLaT4ZTVkYWAzwSFbWXZz4FGP4YLlNy9J/s2bPxlD5E8pUs+RADE09JXeiDTmyFeAeyJDiOMNj/DU+b8B93/yqVK7uKnGZiCgB0s3gfpmfGcHB/zNPoY+rZt28flS9fzmyKI4KygikjeGKlS5WiYzz0Yv6JuSocCv8xpzV29eotmotJA24pC08D1QJbAaffX8U0LXXqVNwXbtApJmOePnWaVq9Z6zoR/OoDwBkRERsF3YsdJxjhe3/O+xiPtciVDyseJkBx8lk3HB0G5PxmTZvI/A4PRhHr19Mjj5aVcniwB0j8zTe7yTRs6U8/u0YKa8W+OESc/BbCi0kH/+vxx8No6pSJMsUbOWosg/xmUb9+veRFA/IBrYqHOky93p82SaaSmE56soiIDfTyyy+KM9o5aZ7K6b57pwBT7+TgJ07E0FOtm9Patetp5crVjOitx9DHQtIXV69eK8grjDyxvwxwg6GPkbRl6zYqynmebfeU9JUDBw7xo8Sa2zqZVJXCqjk+aABhircDdtTQ9A+m0PB3RslDPyj6eMB+vVO3eAfPnSsXlSlT2pV+iTu1mb65Ei0rYCWHMznSan+sWiUPdmjLjRvXXcgd3GUwQtgRR06sL2t91nXkxUOgeYNi3afrga0A3s7iupmbcrp0aeVGiUeBZ9u1ZgbzIu63Z2Sa1qBBbfryq9lyQuhj6DvukE7uztpKjXEcYVAQ0y78t9tefn7A756AAglo3uIlP9mzyHYmfqWLlwfGALvzZHgAs+ZH3rRp0/Hf8/HaAaHszoL8/sxH/cmLutUCRwHrK2S0Cjc+Y4cPH6VaNatRzMlT8mp5/YZYkCP2W6GJJr+/S7cjjKeKHnggNzcmJ23eskWeKzzl1X2qwN1WALMP/NzIcX4RZUahO2mDTyOMpwNgdMF/NVUgEBU4y7/sgP+JYbfevyZG7VqnKpDMFFCHSWYXVE8ncRVQh0lcfbX2ZKaAOkwyu6B6OomrgDpM4uqrtSczBYJS8S9lqakCqoAnBW59th9kvnLgKbvuUwVStgK3BhWdkqXsnqBn76cC6jB+CqbZU7YC6jAp+/rr2fupgDqMn4Jp9pStgDpMyr7+9/TsAS5JahZQDoPftPfVEgLZ9ESVyjT47QG+HtJtPsU2uZXG447YIC/3WbwhlUJCgiVmCzVUqVyJSpV62H1lCbTHo8Mg3BOdGHH0iLLMkCG9HBbb5mTuv4mzAXYJ0ZlIB+2lVMmSriYCc4R9xpAHAVxFixQxSVSsWFHq0OEVysuQAtTvZMAtoS7YzJnf0OLFS2UdgUE4fpEihQmdF9tOx5DMlj9r162jj/7ziaQgP44LtBTKuzOEQOM41rvj6x1fowoVKsQJjXZXXtNjcUcITrQagsKyW7gOCDMPr15FuBEISYYB5YX/xqpVrUyhHHOFfrl+wybauXO37EJfA10G/RcmYeuWupGGQDIcA0t/zG3P6N+vNweI5aMzZ84KEAOx9evXb6D5HDaMDtOlc0fq2q0HDRk8UDBHCOp5/4MZNOCtvhI+HB0dLXim0aNGSHQc7gaffzGTfv31N0fE0vPtn2VxgqnDa6/Q5CnT4oQ944QnTxrPBJlTwkJbtuxnKlmqpCCbFvywULgDhxlygfYCyzNi5Gh6ZzjwS1eEkeYO41SpUiUONgonoJqGDhkk4gGkkC1bVho1ehxfgF3xtBzI8A9cbNwofvppOR04cECxTfFUck7ADalli8YSQwWohYGV5GbsVdWqj0tELfrJF1/OorCw8nJTBVLpl19WcKh6BdEcNe/nEON9+w7wTTE704BK8c08mCEqIXSS4RabmGjUtk0LidRFwBhufghORL+AU341c444ih3P5GtAoaPD5MnzgNzJO3Ts4goQs8Io7HIsX/4LM6HmSYdDAxFnDzxT69YtpcOOGzeByv9fOWZNNRKHgQPYEUtzv/2ekUlPSVl7/agTAs+Z8x2ti4iQ3XAYGEAYly5dpsFDhtOLLz5PaDtidZyOYcc4SQWWPxixcB6vvvovAtfAyWGAeMKFDw+vLmyzHj1nk2KbLCJ6WC3IMwREyi5cuFTCh1u2bCy5jx47TrNmfy83omZNG1Du3LlofcQmqlSpvCCVEKOPaNxvZn1L+MW8Vq2aSDw/OvmKlWvk5lqt2i1QC0aNud8ukBvmC88/zVHBy6U/wpHA2Qvjeu14JitIw8MpkKPDFCtWTO7miJF2MvuUJYJHHmOgxxiWWWi+fDI16s1x/7DDR47IEnnsiCXwx9wZ4rdnzPiI2rdvRy+99Dy9++5EV9bNm7fIkIw7P5zl40/+5/YYrkJuVjbwsA4DMqpo0VvTRZMd08iBA/rLXQsjatq0jvKZ7Lq0KZAnb26KZogFDPQhEw1ZvFgRKlu2lAAsML3CCH6NRwdjmDphNHqyVrgkRUef9DhtBgQFswvYtWvXGeoXi2sC5RRTNTggHhtCQ2ND6PfE7JO8vvxxvOI7duzgjt4uDmbzIg9pIEXCylrgFti2OpYRAelAIWGa1LffrQdreL81D/LBcIJAJbmz1Wv+ZJzOn3L3x8hlfmoQdywcf9GPS2TKiHrcHcNd3SbdiGy27cs6dWrLyNWjZx9q06Y1P2iGSRbFNtmVct4+eOAwM+1KyE48X5jnhwoVytGSpcvlJtr+ubay/xpfU3NjNsy7HxYuEdSrqR3XPb2HPmPy2fubE57J5PW2dHQYTGk2boqU5wYABpYsWcrD2lLq1rUTn3Apn2ECeN6pVLECzZg+Vean27fvICes0Q0+cXCbEYc9ccJYGj9hkgvWhxOAuCNGDON56Tm5O3zy6Wc8p60k54ZnCcxNX+NpFITZtTuKRvPzh91wDL+M67LbX3+tlWnYpPfGs4ODWhKbQ7FNdqWct/ftPyAjyTNPt2JnAZQiFod1iJ8/gXeFnobiE80sMTy845kHzrR5yzbGEbcWBh2eTYCF3c3Qvho1qroe9p2PGv86OuGZopgd7ot5hGDAwzPys4MhtOCOgAdzO3rJ24Fw4nimAAvXk6F+zDEf4jdVWbJkcWXdtn074aEeD+PmbmN24iXDDn44x1szHAPO2bt3f6aGxJ3i4VzcYZxMXfZlWKWK8dpxgNnMThpguqbYJruCztuYctlHc5mG8VTdOltBaUzRAOaDoX9gFmKlxqAcymCa769Z8UyeyvoMwYAnG2dBhbiD++ssKIc3FL4Y6sezDKg0AAYaO3jokIxqdmfB/g0bN1HDBvUYVB3K08j76Bg/QNqdBfk8YZyw38mc2uFOA1/fsjgdJ6Wl2Z0F5++UhnTjLFiH9lZnQZq7ctjnzax4Jm95zX6PI4zJFOhLfCZSqFAhgYs7sdQCvf3avsBWwOcRJrBP41br8MbNvHW7laprqkDCK+Dxk/6EP5zWqAokbQXUYZL29dPW32UF1GHusuB6uKStgDpM0r5+2vq7rIA6zF0WXA+XtBUIwpfZ1FQBVcC9Avhg1IScBJnvZLnPrntUgZStQPrUsXFgUEGnZCm7L+jZ+6mAOoyfgmn2lK2AOkzKvv569n4qoA7jp2CaPWUroA6Tsq+/nr2fCrh1GASKqakCiamAlbyTmMdJyLodHQaBOvhpcX/MH6ZYQvDAEEj0wftT/GmiY14EfoE9oHb3FUh2XDIjIVhhBQsWMJuytDLLEBXXvXsXYYpltHCjrAWsTDErDwx5CnMsCxwOTLFgjrT0hRGGUNbx42NhGCiDyDvgnxAN6cns59KsWVNq2bI55c6Vy1Mx3ZeACmTNGiLXy1plkueSmZN59tln6JGypTliMS2dPn1acEZdOr/OVJXCjFA6JyHDiEXBCYMptmjRYlr5xypTXMKG7UyxCxxyWqtmLA9sJMfqI7Q4U6ZMEsP94Ycf03PPPSPhqJ4YYRgFQaN5+ZWO9OprL9ODxYtJZCfCoZcsXUazZs1xtcGs2M8FfIHKN9kAL7zY3pEFYMrq8s4VSLZcMqs0n332BX3GCTlz5qRRI4fJruLcOVesWElffzNbwkaRWLNmdZ+ZYmB6wdDpEQaMTg/iZLeunWnV6jXiML4wwqSSm38OHjxEQ4eNYLBbWXrh+eccHcZ+LnD0TZs202UGWnz00SfW6nQ9ERRItlwyq1a9e/XgqdYDwpHCSAAbM+ZduatPr1WDvv56Ni39aZm1SJx1T0wxxGifOHGCKZWDeYTKQH/++ZerrDdGmCvjzZVdu6Jk7QjDMtzhmpzOxV6PbieeAsmWS2Ykw7y+RImH6F8vd5DnC2BhYQcOHqRBjFfF3Rx4IzgMRgsMuU70DjtTbI3FMUCtBMjiR+aKWQEb/sINrl6NBbeZttuX7s7lCoM+ELOtlvgKJFsumZHu6LFjwoGaOGGcUFcMM+rdcaPFQfDcsW5dLLoVLLNJ771L85hFhucYY05MMTMCwMHwkF6vbm3mUtUSDNNbAwaZoreWPBLdqbk7l9U8BcQbwRHvDKX+bzkc+04PrOVdCiR7Lpk5U7DC8MCPKZQx4DsxIlhHFOQDrjVf3lgEJ/Kio27d+rcjU6xhw/r0eFgl4Swj7/Dhg2n16j9p3rwF2IxjToyw/fsPxMlj3XCX3+lc8IYNCFFFJVkVTLx16G2fQSANfSlJc8mMZKdOnTKrrqUTCxn5SpZ4WMDRJiOQn+CbOTLF1m+k5s2aUJ8+PSkDv2XLljUbrfh9pSkaZ+nECIuTwbbhLr/TueDi2S+grTrdTEAFnLR2SsMhlUtmEx6vgcuWKcOI192OTmXLrpuqwF1XIKC4ZKBi4qWAmiqQFBRw/GpMUmi4tlEVuBcKqMPcC9X1mElWAXWYJHvptOH3QgF1mHuhuh4zySqgDpNkL502/F4owOcdM4IAAEAASURBVD+b4vgjZPeiLXpMVSAgFYjDJbt67daPbwZka7VRqsA9VsB8lQvN0CnZPb4YevikpYA6TNK6Xtrae6yAOsw9vgB6+KSlgDpM0rpe2tp7rIA6zD2+AHr4pKWAOkzSul7a2nusQEA5jD9ss65dOlGrVi3uSD5/+WgJxUK7o0ZrYVEAAWfBwVkc1SjAuK66dWo67rvTxDShoQUHu6sE4cXgkZ3kwDCEEnPYPgeDXZPY/Rw5sjPW6ALdf/99hLj8hx9+iEOMzxKYU6lTp2LsUXH+KfDjUnWhQgU5zyUJJENCLHcsNeUPzU8mEK1YsaL0+uuv0cZNkRwWfSFOdKdpH9hmiPQ8deo07dmzl7Zt2y71BgUF0UPMNQsJCaYszCg7f/4858vG7Yx7DFOPWR4/cVzqQOQo2oQQbBBxTp/+J17kH8ogInD79u0UHRMj53358hXGTRVxnYOpV5eJowCuEXdBAoehbJlSBMfAtcAHi2nTBlH6dOkpU+ZMFBNzko4ePSb9EvFW4E1kDQnhYLSLrobB4XJy30WYPG6EJvzelcGygrwGAOP2Y/7+/XpTaGg+OnPmLC3/5VcqX74crV+/geZzzD6AeV06d6Su3XoQwBhXrlyVjvv+BzNowFt9paHR0dE0ctQYGj1qhDQGnfnzL2bSr7/+RmPHjJQIx7Nnz1LmzJmp4+td6fn2z4pTgm02eco0drYTriajsXa2WclSJekAhygv+GEhgTFwmGkxaC/ia0aMHM0kmiHxjmENsUbllSpVcvHRhg4ZJML6ykLDecOBcLPAuU2YMIn+ZgdWS3gFEFbeqGFtDjCM4RtiZlq+fAXDWR6UA6EzR/HNs/LjFcVxdkftpWPHjsv+hQuXUpunmsuN+ty588y9y0hffDmLcufOxQyJcHaq4xwdnIcOHjpCixe7Jx9Zz8jRYRCXj1GhQ8curjstHMadLV/+C3373TzpcLjbD3p7KB06dJhat27JcfJnady4CVT+/8pR0yaNxGHgAAMGDhanQGcvX+4xmvvt9/R026d8ZpvBYWClS5WSTjt4yHB68cXnhSkAIIfTMf5au87dKUi6vyy0+QsWstBLqf1z7ahe/brqMB7Vvf2dITz1wszm9xWrXNwFOMY1TvtrbQT31QJyvb/8KpaTh21j6Adz5syn8zwbat68kfSPwoULUlTUPqmvSZP6tGtnLKLLlPG0dHyGKVasGE8zTrmcxV4BnMJqETzyGMNdF84CA7MYwygIlbVq1qDDR45IOvKYEQQOlZXvIJ4Mw+WMGR9R+/btaMrkiQS0rLHNm7cQULUDB/SjCuyUS5b8JLv8PQYKWVlomNp5sz1ReyTLli1bqWCBWxfJWznd758CoM1ERm7lG259atigNhOM4vY/1IapvX0GgXT0AzgL7AJP9TNkyMDOspcKFy5ATz4ZTpmZfLRn7z7Z78uf+EfmUjt27OCO3i7O3O4iT3Xy5skjdZYtUzpO3VbSh7XRUXv2yDSpb78BrvyYT1rzmB2AIFi/s2PSzdLONjO/zXmGHQ7HX/TjEpkyoh53xzB1uVuirD9WmnXYvmMnleJfOsBcWi3xFIjcvJXwH6MEnl1wzdMx6ceYBWhkkmTplH6JUcWAa0REbKToaP+um6PDYEqDh288N+DBdsmSpbSY/3fr2onwMxigwPhieN6pVLECzZg+VRq4ffsOAs/Ybjf45PEAnylTRpo4YSyN5+eBffv2u7I5sc0ev8lExksHcJ0BFIQj7tod5chIxjH8MielbRXUqhlO4dWrCaJp2LCRtr26mVAKFOVn5goVHpNnUlxrzFTOnjtH9evVohz8cgeO5LPxdU3PMxK8YYv99YAbfKON9LmOVJXCqt2CjdmOiqEvIw9huIvDcOfG2zIrodJWxHETbyowl8SDlydD/XjAe4g5y9Yp0TZ+M4WH+mzZssYjy+Alw46du2jmzG/kGHDO3r37UwwP0VbDuaBzW+2PVas8tskd2wx1TJ0ykUaNHidv7M6cOWOtVtcTQQG8BUMfwksWY9jGWy5/ZwbPtmtN389bxP34jLw9a8DTPDz/uDOfqTEYSYyzoDLcwf11FpTDmytfDPVjLurEFHPLNtu4iee19WSYvu++++QNid1ZcGwO/InDS0Na2rQY0t07sVM7UM5q6ixWNRJvHW9i7YZpmfVxwL7f3fbhw0f5mboa31RPyavl9Rsi3WWNl+5xhImXO0AT8EtWhfhFQGTkZvls6G40s0zp0oSRz9P7+7vRDj3G7SmQhT/OwCPA8RPRjs/U1lqtI0yycBjryem6KpDQClgdxvG1ckIfUOtTBZKLAuowyeVK6nncFQXUYe6KzHqQ5KKAOkxyuZJ6HndFAXWYuyKzHiS5KBCUOpX6THK5mHoeiaOA9atcQddv+PmVkcRpk9aqCgSsAvgGijEdXowSulQFfFBAHcYHkTSLKmAUUIcxSuhSFfBBAXUYH0TSLKqAUcCtwyDuRU0VUAXiKuDoMHgr0L1b57g5vWz5g0jyF2/kdOjbQR4hOA0UHLWkr0BAYZbgME0aN+QgmwWibN68eShHjhyMHzrtUtqKYErPoaKDmaKyLmK9wAqcIjKtiCQr3ggVIkb/ASZ5ZOSvWyMyEtFw/iCPgjn+Hu/KAe4ALMHdV+537NhFe/ftI3y1GwbnAXrHqb2SQf8ElAIBjVkySj377DP0SNnSHICVVhwGdJYunV9nHldhIXic4HgCAC0QOgpE0qJFi2nlH6tMcYmSsyOSLnA8da2a4TRw0BAaOWKY5MnEMAJEZn744cf03HPPSHSnr8ijV197mTloxSRQDXUsWbqMZs2a42qDWXnzza40cuRYatO2NRVn0AduAOCrLWD6C6g3aoGpQMBjlqyyffbZF/QZJ+TMmZNGjRwmu4pz51yxYiV9/U0s1gaJNWtW9xmRFB5eXerBSIaoxpdf6UgPclhyt66dadXqNeIw/iKPDh48REOHjaBHHilLLzz/nKPDyEFv/gGgYzSHGAMgiOOqw1jVCaz1QMIsOUIwrHL17tWD8uZ9gE4zHRIx1LAxY94l3NWn16pBX389m5b+tMxaJM46pkcGkfTSS8/Tu+9OdO3HNOrEiRMM3RvMI1QG+vPPv1z7rMijokWLuNLdrezaFcuWOsKx/57oM6Y88sF2Mg8AcDi1wFUAmKWQyGDBLIF6+uPin+M11l/M0pO1qlEGno0kCGbJtCZ3rlxMEHyI/vVyB8rPaBvQHmEHDh6kQTydwt0ctBY4DEYLAAnAgbKbHZG0xuIYgBps4Lj8HxmTZOUF+As2uHrVP0QS6J0wvKxw98xjPw/dvncKBDRmychy9Ngx4RRPnDBOIBKmY4FWCQfBc8e6dRGSHWimSe+9S/MYrYTnGGNOiCQzAsDBQKGpV7c2oztrCcHlrQGDTNFbSx6JEtowFZw8aYJAADG1VAtcBZIMZslIiIcuPCBbv7UJKDhGBOuIgnzAzObLm9cUJTjd1q1/OyKSGjasT4+HVRJsLAoMHz6YVq/+k+bdfDuHNGOekEcmj3XpKX+PHt3pwIGD/LD/g4DPb4c8Yj2Wrie+AkkCs2RkOMX0frthzmg35CtZ4uE4OKNr/JrYLSJp/UZq3qwJ9enTkzLwW7ZsWbPRit9X2quVbV+QR9aCvuQ/e/actYiuB7ACilm6eXHwGrhsmTJMrNwdD9KXWNcPnwmBlWZ+jiOxjqP1Bq4CilkK3GujLUviCihmKYlfQG3+vVPA8btk9645emRVILAVUIcJ7OujrQswBdRhAuyCaHMCWwF1mMC+Ptq6AFMgKHXqNAHWJG2OKhBYCly/foO/9hXbpqDr1+N/9yuwmqutUQXurQKpU6dyNUCnZC4pdEUV8K6AOox3jTSHKuBSQB3GJYWuqALeFVCH8a6R5lAFXAqow7ik0BVVwLsCieYwGfi30CtU+D8Ob87jvRVJJEepkiWTSEu1mYmlQKI5zNgxo6hxowbUoH49QsRmQpqVgZZQrDFrnU5tRYTpG290cdqlafdAgXvFJfPoMAgvRkdCKDEMEAwQY4KCbrEzwIoCRKJokSIu2bCdOXMm+mD6v+mTT/9HkydPk33333+f1FWCg8wQB4OyISEhUic6JEQwsfamMoxU1mNiu3v3LjJyZcyYket+n/YzJAHmrn1oP6g01nab+rG014k0tM96TkgzhrZaR07w0JDfmJMmZp8ub18B6JqJrzmsVMmHBf+Ffobrmy5dWtmXNWsIHWLAyR+r/pR8uC7oV9k5GthqSMudKyf3v2Dh4Fn3eVq/1fNtufr3602hofnozJmztPyXX2kX01V69+5BJ0+eknBj8MMAsxg7ZiQBWHH27Fl2kszU8fWu1KlTR4n5B6fsy6++pk6vd6DOXboLRAORc5cuXaL3P5hBbw96S9hmKI8TQIc+f/4cd+AM1Klzd0kbM3oEgRSC0OfRTKupVLFiHAZau3ZthTWG31y3tw/wjaFDBnllnLVs0SJOnblYyMYMMgRzDRcA/DSsGxswoB9dYrba5ClTafSoEQLRgPCffzGTfv31N0dNrOHdph5d+qZAIHHJHEcYdE7cNTt3eYP69H2LFi78kVlh7Wjp0p+pV+9+NH36h4SOCsNdfcDAwdSjZ1+BWJQv9xhNmjRFwpIHvT1UIBpWWZYv/0Xq3Lt3n3Tkfv0H0Js9esuI9J+PP5V6kB80TDhS1249aPg7o5gLsI3ZZ+HcKb8kxOCjbisw0F37UBcYZz179RUHr82wDbvZ62zEU8khQ9+RdoJo83TbNq4i4AGk5hFmzNh3qVGjhnKjGDFiNH3D4MCmTRpJPidNXBXoit8KWLlks2Z/Tyeio2l31F7asWM3/bz8N5fmM7+eS2vWrI1TP67FnDnzae63C+gCU07RtwGhjIraR4uX/EzRMSd5MIhFdMUp6GbDcYQpxlRIjCRWOASgF5GbN0s1m7dskdEEG4BggHwJwyiT1Tb0yQ7Ln4j1G1xbiPU3cfU41oYNG2UfiJchfGeH0wKyB1oNhtadu3a7ytpX3LUP+fxhnEFgDPH79u2XQ+ziY1ar9oSsYwQsXaqkkHGQEJovn0wrMbLBDh+JZZ35q4kU1j9uFQgkLpnjCLNjxw7pCAaHhDOJjommMmVKy0lVqFCBR5NYgIS/Uw2rE9oVstfVtu1T4qQY5f7554wrO54hzHOVSXTXPuzHSOXNTJ1oHxwZIxysdKlSdOzocVmHI/R/axC/yKgrz1WgZ8Lh+/YbIP/Hjh0v+eznIYn6544UAJfs8y9mUTqGpRRgRh6uUzpmehtzR+JySsd0+iL/j4jYyI8Ms+OQj0x97paOIwwYYxs3RTK3azzf3a/QkiVL6aOPPqF+fXsLFgnw8enTP3KsEzBxq6Hz+NKBnPKt59GoVcvmVO6xR7nTX6Vjx2M7rpWBZo7la/u4MaZInKW1zq9mzqJ+/Xrxs9ZlyYPpHwxtPMwPlF9+9Q31eLO7TCUrVaxAM6ZPlQuwffsOmjrtA8lr/WPXxLpP170rkGS4ZJiCZOQH8DM81TIG8N6ZM7fu9iY9sZYY5TCaXLhwIc4h8CAILpp9xPKlfe6YZdY6MeKALGI99zgNsGxguoip3Llz5y2pupqQCiQJLhmmJvYOczedBYIb2qZdfCdWGvL40j53zDJrnRhN7Odub4PZBrJJLXEVUC5Z4uqrtasCHhW4XS6Z4zOMxyPpTlUgGShwll9a4b+/5viWzN9KNL8qkFIUUIdJKVdazzNBFFCHSRAZtZKUooA6TEq50nqeCaKAOkyCyKiVpBQFguxfMUkpJ67nqQr4qgA+HDd+EmT9BTFfK9B8qkBKUiB9uvSu09UpmUsKXVEFvCugDuNdI82hCrgUUIdxSaErqoB3BdRhvGukOVQBlwLqMC4pdEUV8K5AojnM3eKSITIS5BC1pKdAzpz3J7lGJ5rDJCaXzKpyhw6vSBixNc3Tujf+mKeyui9hFahf70mPFQKr5MlA6gFtCFalciUqVephT9kTZJ9HhwkELhnO0s79QlrOnDnlP9bdmTemmbtymp64CgBdZTq6OVJ6jtW3ssMANQmvXkWYYeb3WcAkM1wylKtWtTKDSPIKV279hk20c2csJAURsAijR/+FIRrWWjfSEFGLY2Dpj7mNhwkELhlO3M79+oUZaX379hIQAoSA0E6GC+KNaWbFNDnVoWkJqwA+LW/ZorGElYM9lyZN7P0aQL2qVR8XLgJGjS++nEVhYeUFEPlElTD65ZcV9PjjFQggSNj+A4eY6nOAQS3Z6ZFHSgmML2u2EDoZc4o2RW6htm1aSLg4IoYRZh8UhBD3i9JXvpo5RxylUcPazLv7h7lzwfTtdz+46EXezthxhAkULpkT9ys4SxYmUham1zt1ow4du7glfvjDNPMmku5PGAUKFsgvYd9gi82bt8h1dz967Dgh7cfFy4Twkzt3LlofsYlOn/6HFi5aSmm4w+fjkeT7eQtpwYLF9GDxInTgwEHp5CtWrqENGyPjNBCjBjhkc+bOJwAel/+yUraRCdyGsErlKTLyb1qydDnt239QKJpxKvCw4TjCBAqXzIn7BdQT4BfGQOZ0Mn+YZk7lNS3hFciTNzdFn4iRik/zNTQ0oeLFilDZsqXoIhNRMY3G7OAajw7GMHXCaPRkrXBJio4+6Rb7iwxXr15zobWuXbtOR48ek3IXGeSHqVpwcBZ5URQamlfS98Tsk6UvfxwdJpZL1o55telcEArD/YqM3MxU/rvDJQP3KzQ0nzC/zMmAp/zii+1FMHwpDkO4kxmmGfBLw4cNdmXB3QdTA/0OnUuSu7Zy8MBhKl26hBwPzxfm+aFChXJytwcQsv1zbWX/Nb62mE7BDKb3h4VL4lw3XP/03Ee9mXFMk+8Uj1ynGT+82kbJNPs9LR0dJlC4ZPPn/8As5bjcrylT3xeS5dQpE0VwzFOvO7DGfGGaLVq02JM2ui+BFQDBEiPJM0+34msXOxLgEICH16kdLsg4QwmKjo4R2imeeTB12rxlG7V7prWgh3HN8dwBXGyNGlVdD/vOzY3PoVu5cjU1aVyPwfeFZJRbvXotRe3Z61zclpqqUli1+DXezBQIXDI0xYn7hdEPdxjzYBdevVqcU/tj1SqB/2E08ZVpFqcC3Ug0BTDlstNIZRrGZFFcU6thigZKJQwjEq47YPbGUA5lbmfGAOI/pm/2Y5q6zTJTxthfCMC24whjMqIz2tlcvnC/TPmEWjpxv8ydCMfAWxA8FFotbdp0bsF6Vv6YtYyu3x0F7M6CozqlId04C9YxtbI6C9LclcM+bwaqq7/mcYTxtzLNrwokRwWsI4zja+XkeNJ6TqpAQiigDpMQKmodKUYBdZgUc6n1RBNCAXWYhFBR60gxCqjDpJhLrSeaEAqowySEilpHilEgKA1/41dNFVAF3CuAb5Kkubk7CN/ZUVMFVAH3CqTH93humg4vRgldqgI+KKAO44NImkUVMAqowxgldKkK+KCAOowPImkWVcAokGgOc7cwS+ZEdJn0FFDMkuWaJSZmyYpKmjhhLBUsWMBy5Lu/miVLZqaX5PPrwNZz8KtgMsqsmKWbFxMdCHC9D6b/mz759H80efI02QPqBwK6SpR4WILCwJ0KCQmh4sWLSXAQgoGKMODCat5QSZMnv0/7OZIPBooM6kLgmzEcA8d88MHicdLNfrNEcBLyWO96qK9YsaJSL/IheAkQDiCeAAox1qxZU2rZsjnlzpXLJMVZejuHOJlTwIZilq5cYYLHWXaSzNTx9a7UqVNHcYAOr71CX371NXV6vQN17tKdhgweKFGQCAJ6/4MZ9Pagt4T8gSAgOAs6+vnz5xiEkIE6de4uad5QSe3ataWRI8cKHaR37x508uQpJoNkpQ8//Jhjtv+koUMGSVvOn78g6aNGj+OQ1l1xuiXomX379iSEZoMqMnLUGEb8ZKE+XF90dLRgeQYPGU4PPfQQh8m2cUEWjp84QR/weVR+vJLU9wKzBkZz/VbDeXk7h5SCe8KNSzFLfBceMHAw9ejZVyIcy5d7jCZNmiKhw4PeHiox2NYOtHz5L9Sn71u0d+8+6cj9+g+gN3v0lhHpPx9/KvUgPzoxHKlrtx40/J1RtHXrNqpZM5w+/+JLCSlF3daO9txz7Wjp0p+pV+9+NH36hwRHMrZ48VLq2asvrfnzL6pdu5ZJdi0RrYlQ1ekzPqRu3XuI47Rv/yz99vtKGjNmPG3fsZNjwBtJfkT9dXy9C3V/oycV4qkgAA2bNm2mtesi4jkLCvhzDq4GJdMVxSzxhUUsNWgfMIwyWfkO7cki1m9w7UYI9Nmz52QbcdUbNmyUdYwGIUxH9AeVBBRP5ObNUn7zli0y2pkDbWAqIgydu2jRIibZtfx9xUrKkzcPDRr4Fp2IPkHvsIOClAjnL8nTR9iBm9M+QzBBe/Efd01P5s85eKonOexTzBJfRTvCxtuF9QQcsNflDyrJHQYK7fEl7vubb2YT/r87bjRzeiuzc52QkQajjrHw8OqOsIUr7PgIY3Uyf87BqXxySlPMksPVvGH7bhqcwO4IDsUkjz2fL6gkUxf4Y/369qbHwyoJrG369I/MrrhLbo/dME1r1rSJMNhAqIlYv56xPltkxJk29T1uG9Hs2XMdcU5o8+rVa6h7t8404p2h1P+tQXGq9+UcUgruSTFLcbpG4mzgzRSmPb6ikoKDg8kb2SasUkV5qDct3rZ9u0zX8IBupWpiP96KgcjobZRCWbz0+L/y5Uy1slTcUxw5ZANa2fVEGqb39hmIYpbi6+cxxYpTsmZ0h0ry5iyo44EHcjOEOquruoOHDsmrabtTIoMdM+UqZFtBB7h48YLinmy6OG3anQV5nNKQrpglqKCmCiQhBRSzlIQuljY1sBRItO+SBdZpamtUgYRRQB0mYXTUWlKIAuowKeRC62kmjALqMAmjo9aSQhRQh0khF1pPM2EUCEqVSn0mYaTUWpKrAtZvoATduKGYpeR6ofW8EkYB89OCqE2Hl4TRVGtJIQqow6SQC62nmTAKqMMkjI5aSwpRQB0mhVxoPc2EUUAdJmF01FpSiAIB4zBAJf3f/5X3GvJ7J9cFsRWgwNwty8thz6DWqCUfBQLCYapXr0YD3upLdeo8SW+/PYCqVn0iURQuVLAgdWaiTWKbYaU9/XQbevLJ+NCNxD5+SqgfAWfBwVkcT7VA/lCqW6em4747TbwF8LLUhPfOYIgZuAUAEwBcID09R0BmyJiRkUhp6PDhI65ShuEVExMj0YvYgVEjJuakKwLSRC/m5xNC3SbYKyysIq2LWE+ff/4VB3aFSDw9Ii1jj5VBIhmjGWCByEdAJY4ePSaRkWCDnTt3Pk6UJHho999/v1BpTOPQ7uI8sgSxyJ7MXta019Mxcd7Yj3MxellZaZ6Op/v8UwCj9QUGpJy/cIFKlXyYo2Yzczj5RgkyS5MmNQWlCaK06dLSIe6Xp06flsoRcg4iUBaOhj156pTrgHC4HNmz0YWLFyU8/syZs659nlYcHQbRiMOHDabXOnSWsuBzfffdPErPvDA7l2vYsBECwOvZo7s4BwoMGz6CRo8aweGm1wR+99df6+jDjz6mV197mR4sXozDjS8KyG/J0mVCYylSuBBdunSZaj9Zkx4r9ygtXvyTwPPatmklYasbNm7iu0kwd/pidOrUSXEIQCoyMngCgqBtC35YRE2bNqaGDeoJmwwO16NnHypZsgR16dxRHCskJNhFqZETs/xxKov2ejvmwAH9hJ92//330U8/LadvZs2mN9/sKqw0S/W6egcKgBXXqGFtvpHGiJMsX76CYZAPSo3o+FF79jIbrqKEN++O2kvHjh2X/QsXLqU2TzUX5BdurBn5Rv/Fl7Mod+5cVKd2ON94j3OEbB46eOgI97llPrXQ7ykZviZg5XLh7g0GGEAOffsNkP+NGjbgjn1KmGJvvMlgCgbdGRzRwYOHhOk17f0ZTGd5nFYxQGJ31B5a9vNymj3n2ziNxt27S9c3acaMWKDFrl27uP6B9OtvKxj2l1EYYl98+TVVqVJZyjVu1IDee2+q8MEABSxbtgw1qF+Pli1bLuyzn3jpzpzKIq+3Yw4Z+g69PXgYO8pcwkiplvAKhPDUC6PE7ytW0azZ3zMKK5r7zF7asWM3/bz8Nzkg+srMr+fSmjVr4zQA6XPmzKe53y6Q0QSzkqJFC1NU1D5avORniuYZ0K6dUXHKeNpwHGHsBTDcGXPicuXInoO2/r3NZKHQ0FD2+j2yjTj5y5evcFose3jXrtjGHeFhE6OAJzt2/HgcKML+/Qcl+zmeHh4+fFjWMdKkT59eRiQ4yXPPPROb59w5SQsNzUuLflwsaTu276BKFSvIuvUPRHUqizyejokpwcAB/aUsaJ5p0/okp/XQuu6DAqDNhEQGU9Mm9flGfJp+XPxzvFInT550pBMBrIEpHAzTOVBVo9jZnqxVjR8teLqfKRPtYaikr+Z4hc+fPy+dGR0J//EMYwwNsFvMyRh67LFHmU75t+zau28fPfpoWVlH2fTp07med65evWIv7n6b8UZWs37vzU5LAm0EIIWvZn5DQBsZq8EsMYw0G3laV7JUSZMcZ+m2bI3qfBFufdfOfsw6dWqLPpj6tWnTmkfMsDj16kbCKRC5eSuDGrdS8+aNCA/1uGbpuF8Zs18bT+mXLl6S556IiI2MAo4xWX1aOjoMSC2YOr0/bZIMhRgO3RmmaGCC9e/Xm4AvwnNLz179ZH3K5InseGnlmcQd/SVevewk1m+HxtvPCfAjpp3F2/Xpp5/xW7AOgqfF6NWv/yD6ft586tqlk0z/4FB2jI+pxKms2Yel0zH/+mstT/nq0qT3xrOzXuZ2W0voekIpUJQB9RUqPCY3RMwmDh85Qmd5BlG/Xi15cIcj+Wx8kdLzxwt4wxb76wE3+AYbKc7oSx2pKoVVc3uZMeUA5gZIV18MD+YYncwohPLAvrrrpL7UeTt5MKqd5rck1uOiLQZL68Ql28/DPsyprKc24BkO523nmXkqo/v8VwDTXcx28HLIGLbxbOwO0WTy2ZfPtmvNN9JFfM3OUFb+9YgGDWozNH+2PZtr20qNcRxhTE7Twcy2t+WZM2fiZPG3fJzCd7CB+azdrG1x4pKZ/E5lzT6nJUZDdRYnZRI27cqV+Ddt3BCtN0Vfj3j48FGqVbMaxfAvPeTkt5vrN0T6WpQ8jjA+16IZVYEkpgA+l8mUKSMd58/3vD0C+DzCJDENtLmqgM8K4BkI//21W++L/S2p+VWBFKiAOkwKvOh6yrevgDrM7WunJVOgAuowKfCi6ynfvgLqMLevnZZMgQoEmS9FpsBz11NWBXxSAJ/1GD8JMp/K+1RSM6kCKVCB9OnSu85ap2QuKXRFFfCugDqMd400hyrgUkAdxiWFrqgC3hVQh/GukeZQBVwKqMO4pNAVVcC7Am4dBnEeZcqUZpjAwx5r8Ye9lTPn/fKT3x4r1J2qQAAr4NZhunXrTC//60WqXq2qY/Nvh73VsEF9atmyuWN9TonAMSHwC4ZlaL5YLoBT3jtJS8y676RdKa0sPuto90wrj6d9r8GIjg6D0QU4pK+++po+/e//JNKtCIeJYoQw5o69hTxADlkNeBuU92SInrMf4/WOr3FoagWJgmzWrKk4W+5cuVzVgAcGzJIxiBnCEXTFue04ByB4rMdF2DJYY6jDei72ukHIxMhqnNXUr8vEVQCfCS5cFIs7wnVNnTqVkEPRN2BwKAD6EF5sgCO4zoiSxdIYrnvuXDm5LwRLXpMO5l1Q0K2YSRwDea19weR1t7xV2pKjbdunhOHUpEkjCQlt3LiBVOyNvdW/fx/KmyeP1LRt23aaPGUatWzRjOrWrc2hzhcFyAdgn5PZ+V4HDhygXHzSiJlHTHc55pXBXnixPU2aNEW4Z+AEQJTPv5hJv/76G40bO0rCkBGyCiEgzvnz54QU0qlzd6rMWKdnGQkFaBvEioraQ//5+FNmWlVy1f3HH6vpaT7/o0ePigZ9+r4l+/TP3VGgUcM69N//fcWEmAbiBGDYwUHmL1jM8It8AlR5okoYbYrcKqw58MpOnfqHAZDB9O13P0gfszPHli37lVowPAP0ItwEf/99lZBiWrdqxmmXOZz9H3bUpT6doKPDfPnlTKrGuNbxE94TmuO6iAjx7nAmsKADA1ZnNzzLAMiHDobOOuKdoXLCtWrVYLDfSMYVHaDhwweTOwPfC3cQc4wePWfTU0+14hHuM4qM3Ewd075Klxk0AeBG69YthcQ5btwEKv9/5VjcRuIwuMv06z9AnOY/H02n9z/4N/355180dcpEKlyokBwaoa5vvNlL2vbvGdOEWLlp02ZX3d27dWFy4mEaP36iXBB37dX0xFdg/fpNjO/aThUrlqeHHizKDLu/mEZU2tW5AbGIjPz7Zp5yQsNMwzdJMMfAMGvCWCYwxx5+qLiwJZb+9Avl435arlxZcRjQW+fM/dHFevDljBwdxloQHukLe6to0aLS4Xv1fFOKgz6IEFBMx+AsMJBozPAqCTf/+HoMUwbPMph+9WYiJwwUERhgHSZ2H9//2bBho6QDxBHCwzEMcAwYwlIx0pQuVUq2zZ8Pps+gDh1epYkTxtG6devZ6WaYXbq8ywocPnJMjohrmsvyOGCagZEHeF+w52B7YvYx5C8mHnMMVMxs2UKYrBou+WJiYpGxmAKa/iI7fPjj1WF8ZW/9fRPkN3jIMCHNmGMD0Vm0SBHatXs3FSxQgPbzVMtu7o4BZBNir2FX2BkQWw0DJDA0NJ9QNiWB/1jnsCbNKVY7R47s4rTAP2E6t2t3FD3KTDVTNyg5EydOFkfHyPTxJ+njnI+pW5eJr8C1a/HBF7jOeLa5fv0G85P/odMM9lttoV3m4OcZXEMrcwxOdH/O+2je/EVxGs33TL/Nq8P4yt46fvw4/bFqNYFFBq/Fc0Sv3v147vkD9eoVO+qIAA6NdHeMiIgN9PLLL1L58uUYD/s7dec3d5jqDXp7qBAsZ0yfKuJs376Dpk77IM7Jw1mcHAYj3ORJE2Q03LgxkjnMJ2k142pN3QCdAyXKLiiMXoivdu8VMBw68JWfat2c1q5dTytXrqYmjevxi51Ccq1Xr14rwHqMPFbm2Jb/b+884Kso1r//CJGmoUlEipCQ0IsCooKKdOmIoKig93oVpcuVXqV3KaJ4QX3v9f69iiJNkC5FivQaRAgQSigBEghgKIK8z+8Jc9hs9pxsQoCU5/l8cvac2ZnZ2d/OszOzJ8/37NnLN+1AXr++ImuWiIjjtO7Xjck6KVfUGHi1W/YWOiSeVIGtbAxpALABGwtz4oJFRBxzPAama1isYXGGtREommYYjXuSksn1WgProzq8popbL2WKN3JY68Yxr1//y9Necx66TR0KoC+hP5gbImYLgE1iGu6LOYaHQOjLuJknxZJMjUHD3LK30Girs6BhSDPOgs9OXDBvxzDOgXI4UevJ4glKciyunvglrXVbjxk/l35KDQqAY2013FCN+WKOuQVSmrqctq5GGKeCaTENIx9+6iAsbH9abL622aUCSWGOuakyySOMm0rTQh6Mkm5HyrRwPtpGZwWSyxxzri1+quM3/fGz6CdVQBUwCqjDGCV0qwq4UEAdxoVImkUVMAqowxgldKsKuFBAHcaFSJpFFTAK+GXOlNm8160qoAo4KIDvEW9xyfj/tdRUAVXAuwJZMymXzLs6ukcV8KGArmF8iKO7VAG7AuowdkX0syrgQwF1GB/i6C5VwK5AijhMUlBLaABAFEWLFrG3JcmfU6qeJB9YC2RYBVLEYV57rRXVqVPbtYiVn6hMbzPCKTErVbKEzyxu6/FZie5MkwogfgmBYk5WhPFcoMvcCXN0GATZWNEzwNiggQZTFBAQQAUKPOK1PRg9EHBmNQR7lS1TRmKw7elOrKmQkGCOrW9LGL3MM3DUgXBnJ8M+az1OCCYEhnkr71SnpqUuBXB9czAjAla2TCl6rEI56U/oHwgiwz6glI6fOMnRv5skH/oF+m6e3Lnls3lBmhOKyez3tnUMUc6VKxcNGzqI3mvXScr1YtjE3LnzKGu2bAxaayXRbQi4On3mDA0dOsJTN4AEo0eN4ICx6+JcmzdvpS++/DeHkTaiJvx3+vQZxhedoh07d0kZdODRo4bT/PkLmASyxFMP3vztzTbidO3eayu4pmcYkYQ6zvDvqkOUAQMHe/Jb61m56hdHBNPYMSMl+OzixYuC4mnfoYsnYs9Tkb5JlQrk5s4OnBLCk3GtV65cy9y4uNkHOn74ocOMynpSAhUPhh+W0HLsX7hwGbV6pbnAUcCWAJDlm29/kJgoO4ppyZI4HlpiAjg6jK9CiIxs36GzgCSAKcJoZKxxo4YSbdl/wCBp3CeTJzBE4r/S0RGHf4I9H4ZQYf7pMxo+bAgtX74ygbMgz+w5PwofDOVgjRs3lNDiI0eOUvv27/K+VrRzV2iCerwhmBAmjXbBaT8aN5oqV6pIm7dslbr1JXUrkJOnXghBBjrJRMPCMa5z2uYt2ygwsIj0x2+nz5SbID4bw3WfNWs+xXJ4fHNmk2FmFBRUNAGKyeRPbOvKYTJnvjVzwx0ehn8XsP7LANIKFy4sRBe8R0gyQkeBe8WQaZwF+2CYaqG8GW3iUp1fcdKoA84CO3DgIFWv/iwRD1T2erwhmIDUgbPAMMrksg3RskNfUqUCRxjTlTPUn/lzDfiGHEOLl6xI0E7ATEyMv3UnrjucBXaJcVvZeJYUzs5Wp3Z1ysbTtQdy5BBGmbWMr/eODhMbGytTKnRU/GENYwwN8GaHjxxh0FoF2Y0yAFYcP36CgRLXBdl68GC4pyjSly1bTt27daWu/+weD0iBTJjyYc0Eg2MhHhswPiCWwBI7FXla9tnr8YZgchJTKtCXNKFA6O49hD+MEljUo09k4f5ljCc+juaUfoVJQHYUk2Nhh0RHhwGRA9C9z6Z8LEMhhkNvZu2Ic3gaBSIMUEtYhC1Z8rPQPb777gfq07uHjDpHmQ6zadMWusZOtHzFSqYQVqRePbvLdMt6DKBmAQIE9Hz8hI9pOuro00PQtciHqdpjj1VIUM/wEaMTRTCh/A0WXC1tKABUcJUqFeUmCmIMwI0IQ25QvzblzZNbHMn1mbAHZWV2th3FBGd0Yz4hGFhgwROTSttAOdAmcRewGhZvdqIM9gN/U+P56tas/JRjvdSBMhhuYVgvAXBwgadUiRmejmB0xGJPLe0rAPg4rueVK1c9J4PPmKpjNpIU84VicqrHNQTDLLCcKvGV5q2ck7OgHjBuCxWKw32aeu+/PwvPSWM9zoJ0jGZunAV5k4tgQlm11KcAmNh2ww3ZflO253H67AvF5JTfmuZzhLFm1PeqQHpSICkoJtcjTHoSSM9FFbAqkFwU063nxdba9L0qoAo4KqAO4yiLJqoCzgqowzjroqmqgKMC6jCOsmiiKuCsgDqMsy6aqgo4KqAO4yiLJqoCzgqowzjroqmqgKMC6jCOsmiiKuCsgDqMsy6aqgo4KqAO4yiLJqoCzgqowzjroqmqgKMC6jCOsmiiKuCsgFeHKVeurHMJL6kIFc5ricz0ki1ecjYO5AEdRi1jKmAlE6UVBRwdBoFaXd+PI8a4PRGwyWrXqeU2u+QLLFqUOnVs77oMAtMQs6+WPhRoUL+OzxOxYrOcMubM6S8IJex7ptpTVLZsKadsKZrm6DD2I3jjgWFEAWwPUW9Ww897g0oJA3rJTrmEQ5YoHkJ+jMjxZRi1rGVffLEZtWjRnHlSD/sqpvtSuQLAZAGPZDWEHlvZYWBC1Hj+GQklzpQpjkwE7pjhkqFs9eeq8Q20IIMtstL2Hbto//6DUiX6K3gSZsYjXAob9AR9EMfANinmGNNvreDFZk0S8MBAX+nbpydTYgrRhQsXCSwwY6VLl5LRafSYj6hW7ZrUqGF9jpo8J0CLbt17UZkypalzp/YSOow7hLfozDZtXhdQm5/f/RQTE0OfTvkXs6eeksP8/a03afToceaQuk0jCuDG2uKlJhIlCXqLoREBqPfcc1UlHB59Auywp5+uLAyyZ595mlatWktVq1ahfPkekjM9GnGcCUIRDG7Mw1yHsoQyuXLnpLPR52hX6G/0aquXpH8htB7h74joRQQunHL6d7PEUcA5O3fuPDPu/GnO3AVe+6Fd2kRHGMMD69W7nyCRwAMD2wlkyU6d/0lIX7hwsdSLOz+mchMnfUIgxDRhltikSZ9K50bDK1QoTw0b1BcW2QfdetLPzCTzZl9//Q316NmXRowcI6gmOOmuXbtpy9Zt6izeREvl6UWLPCoh5j/M/JHmzVvkubtHnjpNSFvMMD3E5+fP/zBt37aLb5TnmVm3jDLfDGH/cd5C+umnJTw7KUYRDFPBzXbtuo3cL0PjnTlGjdlzfqJZs+cLSGXlqnXyGZnAiHj6qcoUGvo7LV22ko4cPSYUzXgV+Pjgc4QxkAE7DywkJERGDXs8deXKFQVSEB4eLsACOMkbb7wuh/+DKR+or3DhgrRo8RJJC9sXJoQXp/b17NGNmWOPUMz581LOKY+mpS0FChTMT1FMr4ThuhriUPGQYnwzLUuXr1yR6RWma9d5dDCGqRNGozq1a0hSVNRZGTnMfvsWlCMDxrh+/S+hrSLP5csYZbLINA9LBfRF2KHoI7J18+LTYeAQTjywsLAwHg5byzQLSCZjS5ctl9Gnd68eNGjwMGn09O9m0PbtO0wWqsnUS4w0OxkXW6ZsGU+69Q1GqtKlS9Lb77ST0WXwoAGy+08WEfHVamlTgWMRJ6hcudLSeKwvzPqhSpVKcrfHLOLNN16V/de57+GGCzPwyAULlwrjThL5Bf0z6012nUlz2hrHNPvO8cgVw0DADRu3mCTXW58Og1qceGDAHgHTOvnj8UK3XLp0mRwQXj1x4mSaNPEjeql5M/rqq6/5KVg7xiXFgQH79B1IP86bT106d+SnGlXFoeyjFCqKPHVKykycME7mn8YpN2zYKFO+EcOHUN9+A+WY+pJ2FADBEiPJ66+1ZGchYd6h9YCHg3UM6J651lFR0YwbziZrHkyddv+2l7neL0u/wE0c6w7gYmvWfM6z2HdWIiHhb926Dcz7rs9wyUAZ5TZs2CJ8Zufy8VNdUWNwJ3DigeEOkJ0Xb4mhjzCkYuFudQ48IjYLfjxpA2bWGBxmFzsk5psoZ71DYLjGsGrKmjK6TTsK4BqaKZNptUzDGO5o7SPYhydgYOPB0A9BQ73CUzdjKIcyvoisJq99C9gkpm/2Y9rzJZkagw7r5BTwdKd0+wENiM+abu3wefPmjcclw3AMc+KYQWi72NZ69X3qV8Dp+jml4UyMs+A9+qHVWZDmrRz2JWZgfyfVXI0wSa1U86sC6UkB6wiT6GPl9HTiei6qwO0qoA5zuwpq+QylgDpMhrrcerK3q4A6zO0qqOUzlALqMBnqcuvJ3q4C6jC3q6CWz1AK+GXOFP9f8zPU2evJqgIuFMAXmyaExe86/0S4miqgCnhXIGumrJ6dOiXzSKFvVIHEFVCHSVwjzaEKeBRQh/FIoW9UgcQVUIdJXCPNoQp4FFCH8Uihb1SBxBW4pw4TFBgoVJnEm6k5VIHUocBdcZhnn6lGgz7sn+CM27VrS+XKJg0YmKASTciQCiBwzN8/DuVlF6DIo4XphXq17Mkp8tlriDIgalevXKW8vD18+IgcDNFuiKHOxqGjDzzwAB06dFgAFcHBxSg8/JDE/4NmGB191hMB98gj+Zn0spUOH4mrAxUFBAQ4Nh4kmsjISEHiIAPaAHBBYNFADlH9zbGMJmYcBdAfLsVeothLl4T0gqjdbdt3SpAZIBl+mf3ofo6iRMjzOY7UhSHMGVGViBg+e+6cRyw4XN48uekS9y8JkGRcmBtzdBiEgo4dM1LYTviWE/HXH3TrRdU4Dv/VVi3FGXYwxGLlilXUs2c3Icjkzp2Lvvji38Iw28oopFmz51L5cuWoffu29P2MWVS7Vg0aMHAw9e7dg3AHAEEGnCgYTmr0qBESzw3G1P+++Y5++WU1pw0XCk1UVBQN/HCI5NWXjKcAQtXBETvDxBk4ycqVaxmSUkKEQMcP5xt3tapPSqgx4vxPMbYJ+xcuXEatXmkuN/I//ojlfpZdmGfAOIEhEBl5miN9C9Cx4ydpCSOe3Jijw6AgOnS//h/SecbhjBo5lMFqcRA9pHfo+L40buiQD2nZshUMyvienqhcid58szV9//1MoVPCYRo1qk8bNmzytAM0zOBiQdT23Q6S9sXnn8m2ceNGHKN/kcaNm0CVn6hEzZo2FocBMwCOcvz4CU8d+ibjKZCTp14YJdasXe9hOcAxrnPa5i3bKDCwiPTXb6fPlNECn42hv86aNV9GpebNGwvVKCioKM+Ijkh9TZs2oAP7w032RLeZvOXAyAJngR0+cpTKl49ba5w6fdoDDQDcInT3bsmDKROmaWvWrpO7AKZiAI3PnvOj7MdL+fLlPHXiM6iZMPCSMdxitKpdqyadOHlS0gE2UGcRKTL0C2gzoaF7+EbagEmqdT34Jaso4EZgamU39CFM4WCYzoG4Gc7OFhRUhOrUqUEP5MhBh24uOexlnT77HGHANkaHBTR89Zq1ceUtbYqKjhInCA3dTVWqVOEp3B+SZxd//mfXLgTOlHE67NjGfLK3GPOKkQMOiekXLPzQIcHO9u5z68EApoVOAkgBfclwCoTu3sM35z2EUQJTevSfLEwPMubgK7LLKf0KU2gA19i2bScB55QU8+ow6Kz9+vaWTgtW1KJFS+jZZ5+JV/eXX/6H+vTuSVV5ugb00dSpX8r+2Twdw3TtP199HS//Jfb0HQyN/vSTiYLMAXXmLz7O/PkLhIA5beqnciL7mIgJlrKaKgAFMI2vUqWiEGKw7sUM5CLfnBvUry0LdziSa+P+lpXRTXjCFvfrATcYNBkqzuimDkdqDO7un0+bImsNIDWtSCSnSv39/Xl6dcFpl2ManrbhDgGHsRoW/5hzYoGmpgpYFbj/fj/pG1f4ya0x9BX8231SUUttWr/MQMlFPPu5QLn4lyYa8jQP6x9vZqXGeB1hUBijTGLOgnxJcRbkN3RDvLcaCOtqqoCTAn/+Gf/mijy46eIvqXbiRCSvlatTNP+qREC+h/inMuLDzH3V5zjCoEClShUJj4fVVIH0qAC+l8mRIzudPhOV6FrZOsJ4dZj0KJKekyqQHAWsDuP1sXJyKtYyqkB6V0AdJr1fYT2/FFVAHSZF5dTK0rsC6jDp/Qrr+aWoAuowKSqnVpbeFfAzvKX0fqJ6fqpAchXAdz3GT/yS88tNyT2wllMF0qICWbPEhaGg7TolS4tXUNt8zxRQh7ln0uuB06IC6jBp8appm++ZAuow90x6PXBaVEAdJi1eNW3zPVMgRRxG+WL37Prpge+yAklyGOWL3eWro4fzqkCq4pIh4jIfB9YgJh8G2AWoLm75Yl7PUneoArehQKrlkuXKlYuGDR1E77XrJKfXi2kuc+fO41jobD75YrehhRZVBbwqkCa4ZF5bzzu88cV8ldF9qkByFUhNXDKfMf3mBIHhtJo3vpg1j75XBVJKAXDJcob6C5fs3LkYWrxkRYKqk8olq1O7ehzyOIlcsviecLMZsbGxBLILqBxgiGENYzXwxXIybQP7kMfwxax59L0qkJIKAKX0v29+YBZZ1hTlkoEWk5T/p3QcYUB1OXbsOH025WNBdALTaTVvfDFrHn2vCqSUAqmeS2ZOFOBnEALt/DCz3xtfzOzXrSqQUgqkCS5ZYkwyb3yxlBJJ61EFjAKpnktmGqpbVSA9KpBcLpnjGiY9CqTnpApYFQCbGX9JNcenZEmtRPOrAhlFAXWYjHKl9TxTRAF1mBSRUSvJKAqow2SUK63nmSIKqMOkiIxaSUZRwO+++9RnMsrF1vNMngLWn470u3Ej6T9Ik7zDailVIG0qgPgwYzq8GCV0qwq4UEAdxoVImkUVMAqowxgldKsKuFBAHcaFSJpFFTAKqMMYJXSrCrhQQB3GhUiaJfUpcK8wS14dBkgbBJAFFysWT61s2bJS8eIhEp6MHQgiAxSjYMEC8oc0f39/z3t8hiGUOSQkWLZxKfqqCiRNAfTJHNmzS6GyZUrRYxXK0QMP5JDfbsmS5X7ZlytXTjp+4iT9un6T5MuePRvBufLkzh3vYEjL/3CAhNf7+z8Yb5+vD47/3o/nzmPHjKQ///xTeGQP8G+at+/QRZxkzOgRBBBBgQKP0OgxH1HhwoWpTetXKSbmvDQeW8T7I076aEQEjR49ThwFqKaoqCjhAwwaPIxO8EmpqQJuFEhNmCWvIwxGhP4DBlG37r3pjz9iqXKliuJAXd7vRsOGj6I9e/ZSrVo15HyvXLnK+XrRR+Mn0cPstZ06d6UePXtTcR5RYG++2YZWr1lHY8aMp31h+6lpk8aSri+qgBsFrJilH2b+SGf4xnsw/DCFhR2kFStXSxXor999P5s2btwSr0qkz5o1n2bP+YkuXb4sN/rg4CAKDz9CS5auoKjos3Rgf3i8Mr4+OI4wKIARwpAvQb3MxUNaYGBRer9LJ0JoMoa6/QcOSt1A3MAuXLhAAGSg7KVLt8AZGA7hcGVKl5J8EYzNUVMF3CqQmjBLXh3G+v8z5sReffUVCt29m7788j9CxjTpTnnNPmzPnDlDJ09G0tRpX1iT9b0q4FoBYJbw17x54xTFLEVFRbtuAzJ6dRh7LTf4hzG3M4+sZYvmVKni4zw9u0anTp+Ol+3GXzfoxo14SfJh2udf0sAB/WjKp5Nk/8yZs2n5ipUJM2qKKuCgQJrBLDm0XZ6K4RdlMfVKquFp2uUrV2QtlNSymj9jK5AmMEtOl+h20EoXeC2kpgokRwHFLCVHNS2jCqSQAopZSiEhtZqMoYBiljLGddazvMcKeP3i8h63Sw+vCqRKBdRhUuVl0UalVgXUYVLrldF2pUoF1GFS5WXRRqVWBfwy8z+nqakCqoB3Bf7i/2Dh7+rF/K7zv7yoqQKqgHcFsmZSzJJ3dXSPKuBDAZ2P+RBHd6kCdgXUYeyK6GdVwIcC6jA+xNFdqoBdAXUYuyL6WRXwoYA6jA9xbmdXuXJlb6e4lk2lCrh2GCCXChcq5HgaXTp3pJYtX3LcdzcSfbXtTh9/4oSxVLRokQSH6fp+pwRpmpByCtwrLlnmwoWLDnI6DaCWSpQoLhyx2NhYeuWVl6ly5Up0KPyQREyCDwUGFCgxCF3eu3cfXeFoSrCj/PhbHmCYYmJiPFWD3hEcXEwQTb4YAHnz5JEOePbcOeGb4ZcGrl27LuypvHnzSKSnr7b9cfOXcdGOPHlyM5gjLmgN0Z44Ltpw7do1aSvaiHah3cbAuQJjzbQd5WBFHn2U+VZ+BC2sFhZ2gA4fOSJ1Ix2gENRfv349+nHeT9as+v42FcA1xTcif7K+FcqXldj+qOho+ou/S8S1yZolK+Xg6xfNJJjIyFN8XeNgLegvuRj9dZmpMcbgcAH5HrrJNMsiYBezz75FXvQTmGNMf1BgIPXu3V3AFWBCTZ36OVWr+pQU+Ptbb9KGDZvo1VYthQ6zY+cu6dggwXw/Y6bwzIBlwkmgs3/QrZd0Ijdcsr59ejLnrJB08pWrfhEHhTPOn7+AihULos6d2tOECZN9tg0ctH59e4nToR2IEO3TdwC9+947jH0KYYc9S/ny5RMwR/bsOYR+M3fuPPppwSJq1qwJNWpYn86ePSeh2EBHoRz0AKNt4aLFtGTJMtHBvHzwQRcaOXKs8A3GjR0l550jR3a5ECaPbm9PgdTEJXN0mEKFCspdHZSX48dPyNnu2rWbrv55VYgxNWo8Lx7XoeP70kG6devqUQSe2K//h3T+/HkaNXIoPf30U1SvXh3hks3nO+5b//ibcMk2MeRhAAAkbElEQVTsBBnc7XF3bte+s9SJCjGi2S2xtmHaGBQUSO+0bS9FJ4wfS089WUXeHzhwgMaOmyCcNIA83u/ajXAu9erWFodp0rihOOSJEydo8OCBVKFCeSl36tQpGjJ0hLz39lL9uWdlVBowcLA46+BBA7xl1fQkKmDlkl28+IeUBpfsOs88Nm/Zxv2miPTHb6fPlJEen42hP4JLFssMChBn0M+CgooKl2zN2vXUtGmD2+eSrVm7jgrwtASklzNRZ2g4g/vsBmIMRhG7IQ3OAjt85CiV56HTDZcshO/+uLM71Ym6/PzifDuxtgUzPBD1GDsZGUmBQYHy8ejRY7L9g9kCcAoYEFBZs2YVwXGMN954PS4PT+3MMBy2/4Ck+XopU7Y0HT0aIVkOH741RfNVRve5UyBNcMlm8PQKfx+NG03PVKsm88YcPIXxmANOCfvQybAGwMgUWLQojyxr6eGAgES5ZGFhYbz+aS1TIQPauHzpMhUsUEAOWaF8Oc+hfbXtAHfu3LlzCU8X0yiMOL+sWi1tsv48oR0HBUdF/unfzZA1mTlYzZrPe3VikwfbHTt2Uf0X6kpS8eIhPB3l+ahaiimQqrlkdXmK8mKzph7C5bbt2ymSpyV48jNi+BBGbP7sVQgsrPv17S1DIzr+okVLaMuWrYlyyQD627krlCZ/PJ6P+yctXbqMj7OMSZsdCY9osZCGJda2vv0G0vYdO+mTyRO4o9/gxV8kg6k3ULVnqnraDF9ngprns3nz1VdfU6eO7WRhD8h6n74Dza5Et+vW/UoNG7xA//psMue9z9PeRAtqhkQVSBNcsuz8FAxPB8z0CmeFz1mzZmFAedw80n6muKt+Pm0KtX23g4DJ7fkMlwxOVeP56vGK/7p+vTCcMS3Kni0bGSQT6sSvAVjb4aZtaKufH/hpt56MxDugjw95+EkdnpLZp4elSpYQ+LopipvILnZyq+EpW2zsJc9TM+s+fZ98BVI9lwygPjusD1MW/CVmcAi7s6CMcQL8ZAYW71a7//4s/DFW7swmH/ajLquzIM1N29y2FfXZzbCi7el58+aN126n0Ag8mVNLeQXSLZesEkPHt27dlvKKaY2qQAoqkFwu2X1PPV094WQ+BRumVakCaV0BPOwCHhnm+l9j0vpJa/tVgZRQQB0mJVTUOjKMAuowGeZS64mmhALqMCmhotaRYRRQh8kwl1pPNCUU4P/EvwlcSonatA5VIB0qgC+wjZ/44Qdc1VQBVcC7AoizMaZTMqOEblUBFwqow7gQSbOoAkYBdRijhG5VARcKqMO4EEmzqAJGAXUYo4RuVQEXCty2wyDGxQkz5OLYmiWDKwAKjAkDT64UKVFHUo7t6DCINvzXZ5+4qqfyE5XpnbffcpXXKdO9ZIo5tUfT7p4CdevUkEDD2zki6kAfulvm6DAILR4/fqKnDUWKPMpkjqKez05vAgLyEXBEVsPdA/HtiKK0mrW+F19sRi1aNKf8Dz9szaLvM4gCiKgFRslu2bNnc3QE8MVwQ/dmYOVZ+xu+cATrzjqSoW5E5ALOklSL35NvlsZJ9OzZjZlcHSXGHhQWkFWWL1/BbK4lCY6B6EnE8aNxAOn17tOfSrCjoA6UBZTiiy/+TZs2b4lXH/hmVt4ZmGJqGUuBhg3qShg5QrsXL1lOUVHRVKf28/TII/klshaRlvPmLxIneIkxSfjWHZ19HwMUN2++FagIJ8F+8CAw4qxZs55Am0Eaon/z5ctL839ayv3xLLV6pblE9iI6FuHu33z7g2vRHR3GlEYjsnF8/axZc2nrtluNM/vNFoTBrv/sLl78xeefCTHljTda07JlK5jC8j09wXyxN99sTdsYymevDyOT4Z2Z+nSbcRTYxJ3+wIFwevyx8lS6VAnasTNUCD///b/pIkKLl5pIWHgevumCYrpg4VJ2GD96/bWWHNm73SNUqZLFhaWw7OdVVIipRZUqVaBDjLua8cNcuZFXq/Ykz3aK0caNW6Sf2lllJ06c9NTl643jlMwUwNRs2rQvpbN/MnligimXyRcVHSVv4f34VxuMNABJhO7eLem7f/uN56oPCIXGTX2mXt2mfwViYuIYdmfORFH+/AH0EHMTrAyH6OhzPKXKLdjfU6fOiCAYdcBs8H/Q3yMQsMC5c+ckrGnKlCnJuNhzgjKGwzVqWI8eyf+wOBoKoI8C7Ae7xMAS3MTdmk+HQSUbNm6S0WPnrl308sstHOu9wTgju8GJyt9kiVWpUkWmashjrw+c3Hi8M3tF+jldKwASJaxgIeZZn79AYCX7+z/oWXMEBDxE0TytR3r+/PkkLyAqWMdcvMnRRuIZnsr9wZ0f0zf8rVy1hipXepwOH45gxvVCIRJJYX5hrkqyzeeUDIulESOGSmfHSfznq69dHQikly+//A/16d2TqjIqFmimqVO/lMWXvb4LFy54eGdgiqllHAUwIylZIpjKlysls5I5cxfItGv//nCecrWQ9UpU1FmKiDjGYEh+gMRUU6w/sIbZsnWnjBRGrb17wyi4WCC1af2KzGQiIo4LibRq1ScpJCRI1iwxN4mspoxnmwQPShSCgXUMFu0YMvHeG0/Mc3DbGzDF4BTGrPWZNAjgi3dm8uk2fSqA62/Hd+GpFv4MwNGcOfIiDTdlJ0P/wkMrUx+WB5n4V5CdME1O5Z3SrBAMnyMMCqNxcBYYwHjeeGKSweHF6izYba3PZMfJmRM0abrNOAo4XXuMPvizm1Neax67g2G9kpIRLImOMNbG6HtVICMqYB1hEl30Z0SB9JxVAW8KqMN4U0bTVQEHBdRhHETRJFXAmwLqMN6U0XRVwEEBdRgHUTRJFfCmgDqMN2U0XRVwUMAvUyblkjnookmqgEcBfB+EL0Bhfn/9pVwyjzL6RhVwUCBTJuWSOciiSapA4groGiZxjTSHKuBRQB3GI4W+UQUSV0AdJnGNNIcq4FFAHcYjRdLfAPqBWHS1jKOAa4fxhUPq0rkjtWz5UppWrVTJEl7b7+382rVrS+XKlvVaTnfcOQUQF4OgRicr8mhheqFeLaddt52WuXDhooOcakEQTokSxSWIJzY2ll555WWqzDCLQ+GHJHYlB9M2gLR5+OEA2s5wi71799GVK1cIYDX+0RlC6GlMTIynagQDBQcXo3PnYrwG/yBPUFCgBKrhmMYQ+QlY4Nlz56Qs8hUvHiKBQrEclgrDcRHXDVACDGGsOXI8IG3CZ2CcQLQBeBDBR8BGXbt2XaLzkHfQoAEM+tguafaYikOHDnvOD3UFBAQIo6Batadpz57f6dix40hWu8MK4Brfx8dAWHuF8mUJjoHQZXxPAjAGfpYiB4/40dFnKTLyFF/7q0yFySb9BHimy5cve1oIhwvI95B8v4JwZ/ArvBnyos/BHAPIMNXo3bs7nTwZKcyoqVM/j4dDAh7p1VYtJUR0x85d7On+FHE0gr6fMZPGjhkp8dM4CfY5+qBbL+mcvRi5FBUVJXCMQYOHkROlY0D/PhJ+mo9P5OefVzLxYyb17dOTChcuJI6wctUvTBg5SN27dRVRcAJAOvXr20scCtgcnHifvgOoTp3a9Pjjj9GwYSORjUOth9Db77RjdNQ7goC6dOmyiLl02XIRGhipdu+1pUWMkVr363opY17avPG6nN933//AuvSQCwUBUUbtzisAblnjRnU5kDFaEEorV66l0qXjZgTozOF8Q6vGocjocwfDD9OpU6dl/8KFyxyRSvkZiFGvbg12qtMcEFmAjh0/SUsY8eTGHB0GUZW4+06d9gXHUp+Qenbt2u3BIdWo8bx4XIeO70sju3EHNoaO1K//h0L+GDVyKD3NMf316tWh1WvW0fx5P9Fb//gbNW3SWOo2Zcx28JDh4vGov2GDF2jN2rXibO3ad/ZE3w0ePEA69azZc6VY4UKFZFR6p217+Txh/Fh66skqpkrHLUaEIUNH0GOPVaC//+0N+ucHPahWredp4IdDHPObRIxOwcWCqO27HSQJSCm1O69ATp56oT+uWbteGGM4IhzjOqdt3rKN+0gR6Y/fTp95c/ZQxNMo9Ec7UikoqCiFhx+R+po2bUAHmCHg1hwdZs3adVSA2U4DB/RjGscZGj58VIL6Tp0+7enE1p3wcoPJOXzkKJNjygphsHKlilSmdCnJitHIblgjDejfV6ZjmNphiA0JCREQIOo0ljdPXtrz+17zkYIZjABYoLGTkZEUGBQYjyOAfZhiGgMHC3aSWVS+KIomv9mCgmPODWlm+mf26/bOKAAgX85Qf2rGnRtT+sVLViQ4EAB9TnH+TkilcHa2OrWrUzaerj2QI4fwyxJU6CXB66J/Bk+v2rXvRNmzZadnqlWTeWM8HJIzg0A8vSA7GyywaFEhd5w5c4Z++22PTJ8whcLUxm716tWVst2692KY2y7ZHRYWJmsTa6eOPhtNFSs+7il+YP8BgXRgaIZhxME6C9MzwN9gj/JcF3caY9eu/WneerZwKPP/Qp5E2xuACHPyXBigBdSXM+ctLpYtq35MYQVCd++h/33zA2XhaTDWLriJZmEakTEvTAx2IpPj1vbK5Su8nrlC27btJIxKcCq35jjC1K1bm15s1lTWA1g0bdu+nSJPnfLgkJYs/dlr/fByYGOxxXoCa4ItW7bKaDXl00lyAjNnzqblK1bGq2MzY2QxDft40nh+qHBV8mENtXNXqOBlgQBdunSZ4Juwrnn6KcxZrzMzrQdt37GTPpk8gT/f4HlpJP26foMs7lu90oLTJ8px7Av5eAfnDzjWx5M+YqbVAmmzfT8+X2L4244du+jTTybKiIU6/3K6Ik6FNS3ZCmAaXKVKRXnYhHXjiZMnhUnWoH5tgfzBmVwbX6+s/JAHT9ga1K/DxW7wQ6tQhk66q8MrBAPMWdy1rVMQfPaFQ8Jd+vNpU2SOj+8nwLS1GtYAl3m6BWdywjXhiRceIFiPifK4o2dnOuGFi3FPwJCGfHiSZu4OaBuoNljMWw0jAsg1TsO1NR/eY3GJJ2bWR8VX2OlXr14TLytGPNzhEnPCeIX0w20pgCk6RnU8+TKGz5gVJEaSMfnNtk3rlxnut4j72QXC07OGDevKSGP227dWCIbjCIMCuJviz2pomJvGoXPanQX1mA6PTumEa7pxIzaBs6AcOqYpi88wO77JW9vszhdX2vn1HD+2xhNCa9vg4HbDyKl2dxVw4orhpmVd37pt0YkTkVS7VnUhauLR8vYdoW6LktcRxnUNtoyVeHG/dat3cLktu35UBe6JAg8y6ztHjux0mpl7ic0+rCNMijvMPTl7PagqcAcVsDrMrUdHd/CAWrUqkF4UUIdJL1dSz+OuKKAOc1dk1oOkFwXUYdLLldTzuCsKqMPcFZn1IOlFAb9M96nPpJeLqedxZxTAf5DcpCwxZunGrX9svDOH01pVgbStAH6QyZgOL0YJ3aoCLhRQh3EhkmZRBYwC6jBGCd2qAi4UUIdxIZJmUQWMAuowRgndqgIuFHDtMIiiBL0lrRtIOCY605wL4nRApXFjCE0I4bBotdtXABQYayRscmpMiTqSclzXDvPaa60IkZhp3d7v0lGQS9bzqPxEZWr7zj+sSV7fI+y6U8c44IbXTLrDlQJ169S4bRAi6gAP4m6ZT4fBiALAnTXWHQFW4HJZDaOP9Q4NTBLKlGboBUKcYSiHuhBfjzs6DFGZ1nJIczom0q0WEJCPcAxjuMvgeBg9EJ1pDHevYhzeivxWu4+fq6M93sypXYgmLVE8hPxusgO8ldX0pCkAXRHpajf0GydHQISklfFgLwdWnrUPoF+gT1lHMtSNWUYeh+Pa67N/vtW7bHvsPDDsxgiDADF00NWr19JX//2a2rR5nR6rUI4beb+A+8AcG8xQPETIgf4y5bOpwvtCg3MwoQON/eKLf1P+R/JTo4b1hfgCAQC/6NihHcP+giRa8wwH9kycNNnWKqK+zCArWCAOsgF44ORPptCQwQMlxh4hzrkZfDFq9Djaz3AMJ84ZKuzdq7uENyPMefyEj+Mdo1mzJgnaVaZMaercqb2ANQC+cIomjVeJfnCtQMMGdSWsHDepxcwGi4qKZqLL8/QI9w9E/KIfzZu/SJzgpeaNJcISnX1f2AHavPlWoCKcBPvBfoCjrVmznkCbQRquV758eWn+T0u5v511ZJW5bbCjw4BaCTKklQeGThPGnXA0d0bwvN5mvhgc5uuvv6Gv+WgYdcAhM7Zy5SqaM3eedGScPLhhGAHe79KJ1m/YSGB6TZgwmYF+J2gwd/gKFcoLzXItI54ABHSKgsNIViwokHr17id3iBHDh0j9OOaSJcvkeO+++7Y4NhzGzjkDGBA298f5kh/O3rBBfYFoyA5+adK4YYJ21atbh5YvXym0G0xNE+Oembp0m7gCm7jTA3v1+GPlqXSpEkwMCiVc5//+33Qp3OKlJhIyDgIQsFYLFi7la+9Hr7/WkiN7t3sOUKpkcb4JXqJlP6+iQly+UqUKgk+a8cNcmX1Uq/Yk969itHHjFhlt7KwyJ7Ckp3LLG0eHceKBocwR5ozBwPPKnDmuaM8e3fgEGQt7/ny8YQ9IIhg6PjBLw4cNYoBGNtq0abPkwx3hDSZKwoBwxQg0ZsxHQqacWrsmff/9TD755bLfvAQHB8vJ9+j+gSSBcIhFOAw0FxhGpuDgYnKXsXPOJAO/HOU7D2x/2H4CLw3UGRja4NSuwoUL0qLFSyRP2L4wdRhRImVeYmLOS0Vx1y2QHsqbNx7XITr6nJBhMHM4deqM5MWoA4aD/4O3MFfABOfOnZOwpoGhHKZnGK2QH/CW49xvYQCnxN7kVVxiJ8vGgBW35ugwcTyw1jJXtAIf/uIDWQ284tKlSwqCFWsTTMWMWeEEIH2ANbZ48VKPGDjh6d/NEC6zKYPtwIGDZQR7j0cKu8P8fhPgN2jwUOFKWcuhPqtZOWetWr3MbLWnPbsfq1BBmMgV+K4GNq8xtNmpXTWZxIkRcCefQ5myZUx23aaAApjNwFkKMrI1hikuuB5AIOHmhesREPAQz2wO0nVGagUWfVSOiJskpvEX+UZr7AxP5fJxXkzfjNWqWZ0OH44QOiamfsb4Hp5sc3QYJx6Y0xHAKgPqaOKEcXxnziwcMns+LLqwVqj/Ql3m2daWdUC//gPpq6++5qdN7aQ8Tr5P34HUv19vmWJhreME0jh9+rQwx8Aaw7wUnbtHzz72Q2JY4/ltQs4ZMl6//hdVrfoUPf/8c9LmwYOHU0jxEE8dTu36cd58AsH/mWpV5ZjWm4GnoL5JsgLQsWSJYCpfrpTMHObMXSDTrv2Mbn39tRbiMFFRZyki4hgjixlAHxIs6w+sYbZs3elBbOHAe/eGMcY3kNq0fkX6YUTEcZlJVGXmckhIkJCHMAtytCR4kE8IBqYndh6Y0wHxlAOkfqd1R6NGDagq85X7DxgkRYcNG0SAmc9jzjIsDz/BQFnTCfEZaCQMm4D1PXjziRry7t23T0TA3Qe8MWCRfBmewMBZnVBLWBj6Wrzb24XjJFbGV1t0n3cF4AD2GQKuMf7s7DfkRZpTX8MR0Gdx3U19uGHjv40xLUuuWSEYjiOMqdiJB2b2Wbe+Ou6O7Tup+YtNqRc/mcrG1MLcuXLTWgaTG8NTC6tZP+NhQa5ccbhX5Dl2/LhkhXP5OqapD6I6OQv2+3IW7Le2A59hiZWJy6WvSVXAdG5rOVxjcxO1pjvlte63OxhuvLaVhDV7kt/7HGGSXJuXAniUXKF8eTpw8KDMV71k02RVIFUq4HqESanWA9+6YeOmlKpO61EF7pkCPr/pv2et0gOrAqlUAXWYVHphtFmpUwF1mNR5XbRVqVQBdZhUemG0WalTAXWY1HldtFWpVAH+hXCfX8Wk0mZrs1SBu6cAvg/CF6Awv+vXk/8N6N1rsh5JFbh3CmTlf90yplMyo4RuVQEXCqjDuBBJs6gCRgF1GKOEblUBFwqow7gQSbOoAkYBdRijhG5VARcKJMlhksLvcnHsu5rFiUd2VxugB0sXCiTJYcDveuftt9LkiTvxyNLkiWijRQEEkiGU2cmKcLj8C/VqOe267TSvDgOUkrcRBZwvO9cLMS/BxYrFaxDqQJSiPR2ZQKVBGW/mVBax3Ii0NAamAAzthIDFOdTY7EesuHlv8nvjkdnbgmMD+1O2jMbvG+1SwxbXJUf27NKUsmVKCd4L1wlfKmbJcr/sA/gCsItf18eFk6CPoW/YGWRIy/9wAPcRf6+O53TOjl/zI8Rz7JiREn+Pbzn5I33QrZeUL1SoIPXr21saCdpL7z796UVmeTVp0kiCw9DgAQyyANgAdSBC7uLFi9wBH6D2HboI5WX0qBESd43G/u+b72jVql/itc0c3162Tp3a9Pjjj9GwYSMl/4gRQwTA8e5773C8dwhHYZ5l/lQ+PvYZdsY4BtpcRj39tCAOjGDnkR09epTsbfnll9WcNpyZaleZkRVFAz8cEq9t+uHuK4AQ+MaN6vJ1jZYb8MqVaxm+UkIago4ffugwVePYffTVg+GHmS5zWvYvXLjMkUGWP//DzJeoQZGRpxnhVIAjeU8ydis+ocjbWTo6DDIjnrpf/w8lxBe8sac5Lh+GjtT1n91lP9hi6NyNmeUFBhgwTO3bv0uvvdpKAHuoA7H8p0+foY/GjRakURCTKOFA48ZNoMpPVKJmTRsncBgcx6ks0r3ZgQMHaCzX+eabbahSxcfp/a7dqAbTXgDeMA5j55Eh5NneFjgM4sLhKMePn/B2OE2/iwrk5KnXtWvXac3a9Z4wcTjGdU7bvGUbz1aKSH/5dnoczw6fjaEf2RlkQUFFKTz8iNTXtGkDOsDQDbfm1WHgrSYe/jA7QvnyZRlNtJcxOFFSN/YjXhoejiHRMMsOHDhI1as/K3mwH84CQ8fMxXeKwoUKCTmzZ89ukn7iZBwrSj5YXpzKWnbLWzirsaNHj8nbP/g4gAPCMNJkZY6AsaNHI+St4ZGhPIZ5e1twbHUWo9q934JgmTPUn2+uDXgWEcOEzBUJGgUGgxMYA9fSziALZ2erU7s6ZePp2gNMKDp0+EiC+rwleHUYeCYIhOg4AHCvXrNW6rjBP5BpNTgOwANY04QfOkTlypalUzzUwZxOAHkKFy4kUzlrPfb3TmX/+COW56JxUAxw0NBGYzcsv9XpjZpj55E5tQVO5HRscxzd3hsFQnfvIfw1Z/QrFvXod1kYzmfM2zV3Sr9y+Ypw7bZt2yloWlOHm61Xh0GnwVoFW8D8Fi1aQs8++0yCOrF/+nc/UJ8+PWS6hgze5v03+CTnz18g5MhpUz+VRu/bF0affPpZgnrtCSi7edNmnpO2IHDJYHZCCNLgzjfkFZ9umROP7GRkZIK2fDrlX7cK6btUoUAwT+OrVKko62HMGDArAcSvQf3aQsWEI7k27q9Z+eERnrA1qF+Hi91gmGSoOKObOhypMbjLfj5tCrV9t4M8LXKDF0KZB3lhf4GnRG4MTy8wQmDU8MYf81YPnn5duHAhWSOBE1vM2hZvx9T0e6sAeMroL1hDG8NnLAfwcCgp1qb1y/TjvEW85LhA+DWAhg3rEtY/3sw1NQajhxtnwYGQ162zID9IMsa88cfMfvvWrK3s6W4+O52PtS1u6tA8d18BJxAfpmX4S6qdOBFJtWtVp+iz5ygg30PM1g51XYXjCIPS+FmLrVtv/ZyA6xo1oyqQBhTAbChHjux0mr/+wM3el1lHGK8O46sC3acKZCQFrA5z6zFTRlJAz1UVSKYC6jDJFE6LZUwF1GEy5nXXs06mAuowyRROi2VMBdRhMuZ117NOpgJ+mTPF8ZaSWV6LqQLpXgF813OLS8a/HaimCqgC3hXImunWP/DqlMy7TrpHFUiggDpMAkk0QRXwroA6jHdtdI8qkEABdZgEkmiCKuBdgSQ5DOAX+M/itGqAaFSp8oQExrk9B5QJ4d+HV0t5BRDtag0CTM4RUqKOpBzX0WGyMK38X599kqCeRg0bUIsWzROkJ5ZQqmQcsAD5Jk4YS0WLxsVcW9MTqyO5+7t07kgtW74kxceOGUVNmD/QsEF9bsc4V1Ui2rRTx/au8mqmpClQt04NibdKWqn4uVEHYpzuljk6DCIsx4+Pi2pEQ7Iz2qYYR73ZDSNOPo4nMAZvx/NqQPMAkoDhDt21a2e5q6OeyZM/I8TW467drl1bSc+fP7/nOTfKOI1i1jRwBPLmyYOscodCXeZOBWcHdgltAz7pu+9mMBFkmYgKJM+/pn5O//nq/7gdU6Q8XpBunNgkIiCuRPEQ8uNjqd05BaAzqDB2Q1CfkyMg4AvX2JuBWmT6HvKgP6KvmP6BNG/oJexLzBxDlHESAEO807Y9tXjpRXrhhbocTnxZUElbt22XOvv27UUFCxSQ93v37hNKzJDBA4UiExt7iUXIRaNGj+MQ4CcFRNHuvbYS5ty69as0cuRY+hvTXfz9/QnpOMFt23fQjBkzGY9TigDda9e+s6ftaM+woYME33SCmVMo+xA76syZs6kXtxM4pDwsyqDBw6hkyZL0aquWAujYsXOXHCOCHTQwKFDahuN9O/176tihHXXq3JWaMSKqUcP6dJaDiXAhunXvRWXKlKbOndpLNChQUE5BZ57G6ZvbUqBhg7oSTIib1mJGHUVFRTOg4nm5aV66dImjKa/RvPmLpI+8xPH8+BIRN8x9YQdo8+Zb8VroQ9h/9eqf4mhr1qwnwDOQhuuXL19emv/TUr7OZx3RS25PwnGEsRauXbsmDWUOWJf3u0ksNfYBjlEsKJA+HDSEhg0fSRUrPiadEftwN+/eozdt5Pj7uow4+t8338pJIs5/3a/rkUVs9pwfKTr6rMT//8Ad/7mbvIAmjRvRxo2bTTbZIsAnNPQ35p81lc+VK1ei2bPnClJp9Zp1NGbMeBZwPzVt0lj2427SucsHNG3al556Pv74E2EAoB2xsbGedEzRJk36lEazc0P0ChXKy5Rt+fKVzGLrST/zVu3OKbCJO/3cHxfQb7/tpdKlSkisPfrX1//7nmbOmsfO4cfssIJUqmRxDku/SDN+mMt/cxiyWJJHjfs8DcN+3KgXLf6Zfv11EwdAVpB+h/xLlq5gMsxRBj0Wk/zoH0AvzZ7zE13igQDQR7fmOMKYwqgY06ij7KmwY8eOy9AWHBwsQ12P7h9IOsBpmHrBduzYJVuA/IKD4xooCT5eENn5btt/EMgzJUqE0Odf/L8EuWfNnkN9+/SS6R7uMoBngGZYmSNDy/CoBMNIAjt1+rSr0FWcH5zkjTdel3IAEyKtcOGCLPwSSQvj4zz1ZBV5ry8pr0BMzHmpNK6/BNJDefN68F7YER19TkAXmLGcOhWH7MKogzh+/wf9PQ3Kkyc3z2pyEtY0MJTD9AyjFfJnZcIMiJgwJ/SS7HDx4tNh0DEBqQDq9cDBg1S0SBE6GhFBv/++V6oeNHiokF+sx3ECEmBKhbkkGmoM+axz0V/Xb6TOnTvIkIxh027gnl29eoXe/sffGQO6QXaDO3byZCRNnfaFJzvgfQ7QGM9+6xucH9oxndc523lKaKwm14GRZidP6cqUVVys0eVObHF3h7MUZAJlDEMpoqKjZZTBjQvXJyDgIQrbf5Cu879wBRZ9VJqAmzP6Dsgxxs7wVC4f58X0zVitmtXp8OEIgf1h6mcskYhkk81x69NhUGL+TwuoR4+4kUR+D5PDn0/zHRydFrgjzA/R6Xr07JPwADdbhk798aSP+GQWePJg3YOYajw1Gz/hY5rF07KaNarzFG66J4/9zerV66hRo/oeVOy0z7+kgQP60ZRPJ3FcNsma5i8XamCKZ+K4v/rqa34K1k6mabgIffoOZKLIfMLTtWeqVZVzw4VTS3kFoGvJEsFUvlwpuaHOmbtApl37mUT5+mstxGGios5SRMQx5uNlYhxwsKw/sIbZsnVnvBvw3r1hfGMPpDatXxEsWETEcZkZVWWEbEhIkEzHY87HjWYJzsRFnzFlXMX0w9vBg8IizGpIB/Lo3Llz1mTH93gSAtqLtfNh5EE6RhQ8bRs1chi9+15HmRbVeL56vHp+Xb9eRrt4iTc/4KnY5StXpHM77XeThocGMTEx8dqHpzS64Hej3u3lgQPYZyboW/izs+eQF2nmhmc/MqbY6FemPsxssNZxos7Yy3r7bI3pT3SEQSXo5HZnMelunAV5nfLhpOEsr7/+qtzNly1bIccCiR0LPavdfz8eJd5arFv3JQXvZC1nfe80DVRnsSp0596bzm09Avqc9eZq9jnlNfuwtTsYlgGWlYA1a7LeuxphklVzEgrhUfJVBrRhnaSmCqQ2BZI8wtzpE9iz5/c7fQitXxVIEQUS/R4mRY6ilagC6UQBdZh0ciH1NO6OAuowd0dnPUo6UUAdJp1cSD2Nu6OAOszd0VmPkk4U8LuPbv0DWzo5Jz0NVeCOKeD3IH9LrqYKqALuFNApmTudNJcqIAqow2hHUAWSoMD/B0DlmNTANfZTAAAAAElFTkSuQmCC;" vertex="1" parent="1">
          <mxGeometry x="190" y="-10" width="204" height="714" as="geometry" />
        </mxCell>
      </root>
    </mxGraphModel>
  </diagram>
  <diagram id="mYG4HrZDvjTXR6TfHBhb" name="Stripe API">
    <mxGraphModel dx="946" dy="618" grid="1" gridSize="10" guides="1" tooltips="1" connect="1" arrows="1" fold="1" page="1" pageScale="1" pageWidth="850" pageHeight="1100" math="0" shadow="0">
      <root>
        <mxCell id="0" />
        <mxCell id="1" parent="0" />
      </root>
    </mxGraphModel>
  </diagram>
</mxfile>
